<?xml version="1.0" encoding="UTF-8"?>
<svg id="Capa_2" data-name="Capa 2" xmlns="http://www.w3.org/2000/svg" viewBox="0 0 493.43 470.77">
  <defs>
    <style>
      .cls-1 {
        fill: #d05a57;
      }

      .cls-1, .cls-2 {
        stroke-width: 0px;
      }

      .cls-2 {
        fill: #ddd;
      }

      .cls-3 {
        fill: none;
        stroke: #ddd;
        stroke-miterlimit: 10;
        stroke-width: .5px;
      }
    </style>
  </defs>
  <g id="Capa_1-2" data-name="Capa 1">
    <circle class="cls-3" cx="251.43" cy="257.91" r="212.62"/>
    <g>
      <circle class="cls-1" cx="59.76" cy="353.3" r="45.18"/>
      <g>
        <path class="cls-2" d="m82.34,359.39c-.67,1.7-1.61,3.26-2.41,4.89-.5,1.02-1.04,2.01-1.54,3.02-.59,1.18-1.46,2.08-2.62,2.72-2.5,1.37-4.99,2.75-7.48,4.13-1.05.58-2.18.83-3.38.86-3.59.09-7.17-.21-10.74-.5-2.11-.18-4.22-.32-6.33-.49-.3-.02-.41.04-.42.36-.05.92-.68,1.5-1.61,1.51-2.34,0-4.68,0-7.01,0-.95,0-1.6-.66-1.61-1.61-.01-.82,0-1.65,0-2.47,0-.49.25-.77.66-.77.4,0,.66.28.66.76,0,.78.01,1.56,0,2.34,0,.32.12.44.44.44,1.4-.01,2.79-.01,4.19,0,.26,0,.32-.09.32-.33,0-4.98,0-9.97,0-14.95,0-.33-.13-.43-.45-.43-1.31.01-2.62,0-3.93,0-.57,0-.57,0-.57.56,0,2.94,0,5.88,0,8.82,0,.13,0,.27,0,.4-.04.38-.27.59-.64.6-.35.01-.58-.2-.66-.54-.03-.13-.02-.26-.02-.4,0-3,0-6,0-9,0-1.16.61-1.78,1.76-1.78,1.37,0,2.73,0,4.1,0,1,0,1.56.47,1.71,1.46.03.2.11.24.28.23.26,0,.53,0,.79,0,.94.02,1.59.64,1.59,1.58,0,.37.12.45.47.46.97.04,1.9-.07,2.8-.45.46-.19.96-.29,1.42-.48,1.71-.73,3.49-.99,5.34-.87.72.04,1.39.16,2.03.49,1.2.61,2.42,1.2,3.62,1.82.51.26,1.04.39,1.61.38,1.16-.01,2.32,0,3.48,0,1.94,0,3.02.9,3.34,2.85.74-.29,1.48-.57,2.21-.87.12-.05.2-.21.28-.33,1.31-2,2.62-4.01,3.94-6.01.55-.84,1.34-1.24,2.33-1.11,1.01.14,1.67.74,1.97,1.72.02.07.06.13.09.19v.79Zm-34.91,8.21c0,1.5.02,3-.01,4.5,0,.45.12.6.57.62,1.72.1,3.43.24,5.14.38,3.88.31,7.76.7,11.66.6,1.05-.03,2.03-.24,2.95-.75,2.44-1.36,4.88-2.7,7.33-4.05.95-.52,1.65-1.25,2.14-2.21,1.18-2.32,2.37-4.63,3.55-6.94.07-.13.13-.26.18-.4.15-.46-.02-.93-.42-1.19-.41-.27-.94-.21-1.29.15-.12.13-.22.28-.31.42-1.33,2.03-2.66,4.05-3.98,6.09-.18.27-.4.46-.7.57-.97.37-1.94.75-2.92,1.13-.17.06-.31.14-.43.29-.62.8-1.45,1.16-2.46,1.15-1.72,0-3.44.05-5.16-.02-1.03-.04-1.91.07-2.47,1.05,0,.01-.02.02-.03.03-.33.32-.69.34-.98.07-.28-.27-.28-.63.02-.98.31-.35.65-.68.94-1.05.27-.33.58-.43,1-.43,2.23.02,4.47,0,6.7,0,.71,0,1.26-.28,1.56-.95.48-1.06-.31-2.17-1.56-2.19-1.26-.02-2.53-.01-3.79,0-.78,0-1.51-.17-2.2-.53-.78-.41-1.6-.74-2.36-1.2-1.27-.76-2.6-1.1-4.08-.96-.58.05-1.17-.01-1.74.2-.73.27-1.47.51-2.21.75-1.38.45-2.72,1.05-4.23.83-.39-.06-.46.13-.45.47.02,1.51,0,3.03,0,4.54Zm-2.67,0c0,2.09,0,4.18,0,6.26q0,.71.72.71t.62-.64c0-4.18,0-8.35,0-12.53,0-.92.08-.83-.86-.85-.38-.01-.5.08-.49.48.02,2.19.01,4.38.01,6.57Z"/>
        <path class="cls-2" d="m63.9,330.72c.42.16.75.43,1.07.75,1.79,1.81,3.59,3.6,5.39,5.4.11.11.24.23.32.36.17.29.11.58-.13.8-.23.21-.5.25-.77.08-.13-.09-.25-.21-.36-.32-1.82-1.82-3.65-3.63-5.45-5.46-.3-.3-.47-.3-.78,0-4.04,4.05-8.08,8.1-12.13,12.13-.26.26-.27.39,0,.64.58.53.56.55,1.11,0,3.57-3.57,7.13-7.13,10.7-10.7.6-.6.83-.6,1.42,0,3.64,3.64,7.28,7.27,10.91,10.92.28.28.42.28.68,0,.52-.56.54-.55,0-1.08-1.27-1.27-2.54-2.54-3.8-3.81-.09-.09-.2-.18-.27-.29-.22-.3-.22-.62.04-.88.26-.27.58-.26.88-.04.08.06.15.14.22.21,1.4,1.4,2.81,2.81,4.21,4.21.74.75.75,1.48.02,2.23-.09.09-.19.18-.28.28-.52.58-1.09,1-1.96.66v.54c0,3.28,0,6.56,0,9.84,0,.74-.2.94-.95.94-6.94,0-13.88,0-20.82,0-.75,0-.94-.19-.94-.94,0-1.32,0-2.65,0-3.97,0-.1,0-.21,0-.31.04-.39.3-.65.65-.63.37.02.62.23.64.6.03.47.02.94.02,1.41,0,.72,0,1.44,0,2.16,0,.26.07.36.34.36,1.01.02,1.01.03,1.01-.97,0-2.35,0-4.71,0-7.06,0-.69.2-.89.89-.89,1.93,0,3.85,0,5.78,0,.69,0,.89.2.89.9,0,2.5,0,5,0,7.5,0,.38.07.53.5.53,3.4-.02,6.79-.02,10.19,0,.4,0,.48-.12.48-.49-.01-3.46-.01-6.91,0-10.37,0-.27-.08-.46-.27-.65-3.16-3.15-6.31-6.3-9.45-9.45-.22-.22-.34-.29-.61-.02-3.15,3.17-6.31,6.33-9.48,9.49-.2.19-.27.39-.26.66.01,1.18,0,2.35,0,3.53,0,.13,0,.27-.02.4-.06.39-.32.62-.69.59-.38-.03-.6-.26-.6-.63-.02-.84-.02-1.68,0-2.51,0-.34.01-.52-.45-.43-.94.17-2.43-1.33-2.33-2.27.05-.44.3-.75.6-1.05,2.49-2.48,4.97-4.97,7.46-7.45,1.53-1.53,3.06-3.05,4.58-4.59.33-.33.67-.65,1.11-.84h.71Zm-7.68,22.31c0,1.12.01,2.23,0,3.35,0,.32.05.46.42.46,1.37-.02,2.73-.02,4.1,0,.3,0,.41-.07.41-.39-.01-2.28,0-4.55,0-6.83,0-.27-.06-.39-.37-.38-1.39.02-2.79.02-4.18,0-.33,0-.38.12-.38.41.01,1.13,0,2.26,0,3.39Z"/>
        <path class="cls-2" d="m68.46,353.67c-.98,0-1.97,0-2.95,0-.58,0-.81-.23-.81-.8,0-1.4,0-2.79,0-4.19,0-.54.23-.78.78-.78,2,0,4,0,5.99,0,.56,0,.79.24.79.82,0,1.38,0,2.76,0,4.14,0,.57-.24.8-.81.8-1,0-2,0-3,0Zm2.48-2.94c-.05-.42.22-1.07-.11-1.42-.25-.27-.89-.06-1.36-.07-.03,0-.06,0-.09,0-.19-.01-.26.08-.26.26,0,.87,0,1.73,0,2.6,0,.19.07.26.26.26.43,0,.85,0,1.28,0,.21,0,.28-.08.28-.29,0-.41,0-.82,0-1.34Zm-3.13.11c0-.43-.01-.85,0-1.28,0-.24-.06-.35-.32-.33-.4.02-.79.02-1.19,0-.24-.01-.29.09-.29.31,0,.84,0,1.67,0,2.51,0,.22.05.32.29.31.4-.02.79-.02,1.19,0,.26.01.33-.09.32-.33-.01-.4,0-.79,0-1.19Z"/>
        <path class="cls-2" d="m66.91,342.49c0,1.84-1.52,3.33-3.36,3.31-1.82-.01-3.3-1.51-3.3-3.33,0-1.83,1.51-3.35,3.34-3.34,1.84,0,3.33,1.51,3.32,3.36Zm-1.32-.03c0-1.11-.92-2.02-2.02-2.01-1.09.01-1.98.91-1.99,2,0,1.11.89,2.03,2,2.03,1.11,0,2.01-.91,2.01-2.02Z"/>
      </g>
    </g>
    <g>
      <circle class="cls-1" cx="440.9" cy="353.3" r="45.18"/>
      <g>
        <path class="cls-2" d="m429.27,337.71c.21,0,.38.11.56.2,1.17.65,2.34,1.3,3.5,1.96.24.14.43.14.67,0,1.12-.62,2.3-1.12,3.53-1.46.27-.07.39-.21.47-.49.34-1.28.71-2.55,1.07-3.82.18-.65.34-.78,1-.78,1.86,0,3.73,0,5.59,0,.61,0,.79.14.96.72.36,1.27.72,2.54,1.07,3.82.08.29.2.46.52.55,1.23.34,2.41.85,3.53,1.47.24.13.41.12.63-.01,1.15-.65,2.31-1.29,3.46-1.94.62-.35.81-.33,1.3.16,1.31,1.31,2.62,2.61,3.92,3.92.45.46.48.67.17,1.22-.65,1.17-1.3,2.34-1.96,3.5-.14.24-.15.43-.01.68.62,1.12,1.11,2.3,1.46,3.53.07.27.21.4.48.47,1.29.35,2.58.71,3.86,1.08.62.18.74.35.74.98,0,1.86,0,3.73,0,5.59,0,.63-.13.8-.75.98-1.29.37-2.57.74-3.86,1.08-.28.07-.4.21-.48.47-.35,1.23-.84,2.41-1.46,3.53-.14.25-.12.44.01.68.67,1.16,1.32,2.33,1.97,3.5.31.55.28.77-.17,1.22-1.32,1.32-2.64,2.63-3.96,3.95-.43.43-.65.46-1.19.16-1.17-.65-2.34-1.3-3.5-1.96-.24-.13-.42-.17-.67-.03-1.12.63-2.29,1.12-3.53,1.47-.29.08-.42.23-.5.51-.34,1.28-.71,2.55-1.07,3.82-.17.61-.35.75-.98.75-1.86,0-3.73,0-5.59,0-.64,0-.81-.14-.98-.74-.37-1.29-.74-2.57-1.08-3.86-.07-.28-.22-.41-.48-.48-1.22-.34-2.39-.82-3.49-1.44-.28-.16-.48-.14-.76.02-1.13.65-2.28,1.28-3.42,1.92-.6.33-.78.31-1.26-.16-1.31-1.3-2.62-2.61-3.93-3.91-.47-.47-.5-.67-.16-1.26.65-1.15,1.29-2.31,1.95-3.46.15-.26.15-.45,0-.72-.62-1.11-1.1-2.27-1.44-3.49-.08-.29-.23-.42-.51-.5-1.28-.34-2.55-.71-3.82-1.07-.62-.18-.76-.34-.76-.97,0-1.88,0-3.76,0-5.64,0-.6.15-.79.73-.95,1.29-.36,2.57-.73,3.87-1.08.29-.08.42-.22.5-.51.33-1.19.79-2.33,1.4-3.4.19-.33.16-.57-.02-.88-.65-1.12-1.27-2.25-1.9-3.38-.32-.57-.29-.77.16-1.22,1.32-1.32,2.64-2.64,3.95-3.96.19-.19.38-.37.66-.37Zm30.5,31.95c-.04-.08-.09-.17-.15-.26-.62-1.11-1.24-2.23-1.88-3.34-.23-.4-.25-.75,0-1.16.77-1.29,1.34-2.66,1.71-4.12.13-.52.41-.77.91-.9,1.22-.32,2.43-.69,3.64-1.01.3-.08.38-.22.38-.51-.01-1.39-.02-2.77,0-4.16,0-.34-.13-.44-.42-.52-1.2-.32-2.39-.69-3.6-1-.5-.13-.78-.38-.91-.9-.36-1.44-.93-2.8-1.68-4.08-.25-.42-.26-.78-.01-1.2.65-1.12,1.26-2.26,1.9-3.38.13-.23.12-.36-.07-.55-1.01-.99-2.01-1.99-3-3.01-.2-.2-.35-.22-.59-.08-1.09.63-2.21,1.22-3.29,1.86-.45.26-.83.28-1.28,0-1.26-.76-2.61-1.31-4.03-1.68-.54-.14-.8-.42-.93-.94-.31-1.21-.68-2.4-1-3.6-.08-.28-.18-.4-.5-.39-1.4.02-2.8.02-4.2,0-.29,0-.4.11-.47.37-.33,1.22-.7,2.42-1.01,3.64-.13.5-.38.78-.9.91-1.44.37-2.8.93-4.07,1.69-.41.25-.78.26-1.2.01-1.12-.65-2.26-1.26-3.38-1.9-.22-.13-.36-.13-.55.07-.99,1.01-1.99,2.02-3,3.01-.2.2-.22.34-.08.59.64,1.12,1.25,2.26,1.9,3.38.24.41.23.76,0,1.16-.77,1.29-1.34,2.67-1.7,4.12-.13.5-.4.75-.88.87-1.22.32-2.43.69-3.64,1.01-.31.08-.4.22-.4.54.02,1.37.02,2.74,0,4.11,0,.32.09.45.4.53,1.22.32,2.42.69,3.64,1.01.48.13.75.37.88.87.37,1.45.94,2.83,1.71,4.12.24.4.25.75.01,1.16-.65,1.12-1.26,2.25-1.91,3.38-.14.24-.14.38.07.59,1.02.99,2.02,1.99,3.01,3,.19.19.33.19.55.07,1.12-.64,2.26-1.25,3.38-1.9.43-.25.79-.23,1.2.01,1.27.77,2.64,1.33,4.07,1.69.52.13.77.41.9.91.32,1.22.68,2.43,1.01,3.64.07.26.18.37.47.37,1.4-.02,2.8-.02,4.2,0,.31,0,.42-.11.5-.39.34-1.25.7-2.49,1.04-3.73.12-.43.36-.66.8-.78,1.45-.38,2.84-.93,4.12-1.7.46-.28.84-.26,1.28,0,1.09.64,2.2,1.23,3.3,1.86.21.12.35.17.56-.04,1.01-1.03,2.05-2.05,3.07-3.07.07-.07.17-.14.15-.29Z"/>
        <path class="cls-2" d="m431.19,356.26c.02-6.47,5.26-11.67,11.72-11.64,6.44.03,11.64,5.27,11.6,11.71-.03,6.45-5.25,11.64-11.7,11.61-6.45-.02-11.65-5.25-11.63-11.68Zm21.91.03c0-5.62-4.59-10.23-10.21-10.26-5.64-.02-10.27,4.59-10.28,10.23-.01,5.63,4.62,10.26,10.26,10.25,5.62,0,10.23-4.61,10.23-10.23Z"/>
        <path class="cls-2" d="m441.09,353.59c0,1.17.7,1.89,1.74,1.96,1.61.1,2.7.92,3.1,2.31.47,1.63-.36,3.3-1.96,3.89-.33.12-.43.28-.4.59.02.17.02.34-.01.51-.07.4-.3.64-.72.64-.4,0-.72-.26-.68-.61.1-.79-.31-1.07-.94-1.39-.95-.48-1.44-1.36-1.56-2.42-.07-.56.17-.96.62-1.01.44-.06.76.28.81.85.07.75.46,1.27,1.16,1.52.7.25,1.35.11,1.87-.43.53-.55.65-1.22.37-1.92-.29-.72-.88-1.02-1.63-1.07-1.53-.1-2.64-.92-3.06-2.25-.52-1.65.32-3.39,1.95-3.96.31-.11.42-.25.38-.56-.02-.17-.02-.34,0-.51.06-.4.28-.65.71-.65.42,0,.75.26.7.64-.1.78.31,1.04.93,1.35,1,.5,1.49,1.43,1.58,2.55.04.5-.23.86-.66.9-.41.04-.73-.28-.78-.79-.14-1.37-1.5-2.13-2.66-1.46-.59.33-.85.86-.86,1.34Z"/>
      </g>
    </g>
    <circle class="cls-1" cx="45.18" cy="179.64" r="45.18"/>
    <g>
      <circle class="cls-1" cx="245.08" cy="45.18" r="45.18"/>
      <g>
        <path class="cls-2" d="m270.25,59.74c-.19.42-.5.76-.82,1.09-2.95,2.94-5.88,5.89-8.82,8.84-.94.94-1.68.93-2.61,0-.99-.99-1.98-1.98-2.96-2.97-.71-.72-.79-1.3-.26-2.17.11-.17.05-.24-.05-.35-.58-.64-1.29-1.02-2.16-1.09-.97-.08-1.81-.46-2.5-1.14-.77-.75-1.54-1.52-2.3-2.28-.37-.38-.39-.78-.07-1.09.3-.3.73-.27,1.1.09.73.71,1.45,1.43,2.16,2.15.49.49,1.06.79,1.76.85,1.16.1,2.14.56,2.93,1.42.21.23.33.23.55,0,2.25-2.27,4.5-4.53,6.77-6.78.22-.22.22-.34,0-.56-.83-.85-1.22-1.87-1.21-3.06,0-.64,0-1.27,0-1.91,0-.75-.25-1.4-.78-1.93-1.08-1.08-2.15-2.17-3.24-3.24-.82-.81-1.94-.96-2.9-.38.49.48.96.94,1.44,1.4.12.12.25.24.37.37.3.34.3.74.01,1.02-.28.27-.71.28-1.02-.03-.58-.56-1.14-1.15-1.72-1.72-.12-.12-.21-.27-.39-.33-.1.15-.05.31-.05.46,0,1.41,0,2.83,0,4.24-.01,1.82-1.35,2.9-3.14,2.51-.29-.06-.32.04-.32.27,0,.54.02,1.08-.04,1.62-.16,1.49-1.62,2.46-3.06,2.04-.32-.09-.41-.04-.53.27-.23.64-.69,1.1-1.33,1.35-.25.1-.44.24-.62.42-.88.89-1.77,1.78-2.66,2.67-.74.75-1.62,1.2-2.69,1.29-.85.06-1.54.45-2.11,1.07-.12.14-.15.21-.04.39.5.79.42,1.43-.24,2.1-1.04,1.05-2.08,2.1-3.13,3.14-.76.75-1.59.76-2.34.01-2.01-2.01-4.02-4.02-6.03-6.04-.42-.42-.46-.84-.13-1.16.33-.32.73-.26,1.16.17,1.94,1.94,3.89,3.88,5.82,5.84.28.29.43.27.7,0,.94-.97,1.9-1.92,2.86-2.87.21-.2.21-.32,0-.53-3.03-3.02-6.04-6.04-9.06-9.07-.19-.19-.3-.21-.49,0-.99,1.01-1.99,2.01-3,3-.2.19-.19.31,0,.49.32.29.62.6.91.91.33.35.34.77.04,1.06-.3.29-.71.29-1.05-.06-.54-.57-1.21-1.03-1.54-1.79v-.76c.21-.43.53-.77.87-1.11.93-.92,1.84-1.84,2.76-2.76.73-.73,1.35-.81,2.2-.24.19.13.27.07.39-.05.53-.55.83-1.19.84-1.96.01-.86,0-1.72.05-2.57.06-.94.47-1.74,1.13-2.41,1.09-1.11,2.19-2.21,3.3-3.3.58-.57,1.27-.94,2.09-1.05.26-.04.41-.07.25-.4-.22-.46-.27-.97-.27-1.49,0-1.48.01-2.96,0-4.43,0-1.19.42-2.2,1.26-3.04.46-.46.93-.92,1.38-1.39.54-.56.82-1.23.83-2.02,0-.22-.07-.29-.28-.34-.93-.21-1.34-.73-1.34-1.68,0-1.46,0-2.92,0-4.38,0-1.07.62-1.69,1.68-1.69,4.34,0,8.67,0,13.01,0,1.08,0,1.69.6,1.69,1.68,0,1.48,0,2.96,0,4.43,0,.91-.38,1.4-1.27,1.64-.21.05-.28.14-.28.35-.03.81.16,1.54.7,2.17.73.85,1.04,1.84,1.03,2.94,0,2.49,0,4.99,0,7.48,0,.14-.03.31.03.42.1.2.2.42.54.24,1.86-.96,3.44-.7,4.93.79.94.94,1.88,1.9,2.83,2.83.72.71,1.24,1.53,1.35,2.56.03.24.12.29.36.29.43-.02.74.31.73.7,0,.39-.32.69-.75.71-.13,0-.28-.11-.29.15-.05.99.04,1.94.78,2.71.18.19.29.25.53.06.63-.48,1.38-.42,1.95.14,1.13,1.11,2.25,2.24,3.37,3.37.18.19.3.44.44.66v.76Zm-27.14-10.11c0,2.22,0,4.45,0,6.67,0,.74.41,1.17,1.03,1.16.6-.01.98-.44.99-1.16,0-.64-.02-1.27-.02-1.91,0-3.7,0-7.4,0-11.1,0-.14,0-.29,0-.43.05-.44.34-.73.74-.72.39,0,.67.29.7.75.01.16,0,.32,0,.48,0,3.67,0,7.34,0,11.01,0,.16,0,.32,0,.48.04.5.41.86.89.89.52.04.95-.26,1.05-.76.04-.22.05-.44.05-.66,0-3.67,0-7.34,0-11.01,0-.19,0-.38.02-.57.05-.36.29-.57.65-.58.38-.02.64.17.72.55.04.18.04.38.04.57,0,2.38,0,4.77,0,7.15,0,.19,0,.38.03.57.07.47.44.8.9.83.48.03.89-.23,1.02-.68.05-.18.07-.37.07-.56,0-4.94,0-9.88,0-14.82,0-.71-.2-1.35-.66-1.89-.73-.86-1.1-1.85-1.05-2.98.02-.4-.14-.47-.49-.47-1.57.02-3.15,0-4.72,0-.19,0-.39,0-.56-.06-.35-.1-.52-.37-.48-.73.03-.33.22-.56.56-.62.17-.03.35-.02.52-.02,2.08,0,4.16,0,6.24,0,.36,0,.49-.08.49-.47-.03-1.35-.02-2.7,0-4.05,0-.3-.06-.42-.39-.42-4.26.01-8.52,0-12.77,0-.3,0-.38.11-.37.39.01,1.38.01,2.76,0,4.15,0,.32.12.41.42.4.87-.01,1.75-.01,2.62,0,.45,0,.75.31.75.7,0,.38-.3.69-.74.72-.35.02-.7.02-1.05,0-.29-.02-.38.1-.38.38,0,1.23-.5,2.24-1.36,3.1-.44.44-.88.87-1.31,1.32-.47.48-.76,1.06-.77,1.74,0,1.62-.02,3.24,0,4.86.01.9.48,1.56,1.24,2.01.4.24.48.18.49-.29,0-.7-.01-1.4.01-2.1.02-.45.33-.72.74-.7.39.01.65.28.68.71,0,.14,0,.29,0,.43,0,4.16,0,8.32,0,12.49,0,.9.35,1.37,1.02,1.37.67,0,1-.45,1-1.38,0-3.72,0-7.44,0-11.15,0-.2,0-.42.06-.61.1-.33.36-.49.69-.47.35.02.6.21.65.58.03.17.02.35.02.52,0,2.13,0,4.26,0,6.39Zm-6.26-4.41c-.91-.56-2.04-.43-2.84.35-1.13,1.1-2.23,2.22-3.33,3.34-.51.51-.72,1.15-.73,1.86,0,.56-.02,1.11,0,1.67.05,1.3-.34,2.44-1.27,3.37-.18.18-.16.28,0,.45,2.29,2.29,4.58,4.58,6.87,6.88.18.18.29.17.45,0,.84-.93,1.91-1.39,3.15-1.49.52-.04.99-.26,1.36-.62.75-.73,1.49-1.48,2.23-2.21.15-.15.16-.23-.03-.36-.31-.21-.6-.46-.71-.81-.17-.54-.41-.6-.96-.5-1.56.28-2.81-.88-2.81-2.51,0-2.73,0-5.46,0-8.2,0-.16.06-.34-.09-.51-.65.66-1.29,1.31-1.93,1.95-.42.42-.85.47-1.16.16-.33-.32-.28-.73.15-1.16.55-.55,1.1-1.09,1.66-1.65Zm31.95,14.11c-.05-.06-.11-.13-.17-.2-1-1-2-1.99-2.99-3.01-.23-.24-.34-.15-.53.04-3,3.02-6.01,6.03-9.02,9.03-.19.19-.24.31-.02.53,1,.98,1.99,1.97,2.96,2.96.2.21.32.21.53,0,3.01-3.03,6.03-6.05,9.05-9.07.08-.08.18-.13.19-.29Z"/>
        <path class="cls-2" d="m261.29,36.88c0,.37-.31.71-.68.72-.39.02-.74-.32-.74-.71,0-.38.29-.7.68-.71.4-.02.74.3.75.7Z"/>
        <path class="cls-2" d="m228.89,38.92c0,.41-.3.73-.71.72-.38,0-.7-.31-.71-.69,0-.39.34-.74.73-.74.38,0,.69.32.7.7Z"/>
        <path class="cls-2" d="m233.7,31.7c.4,0,.72.32.71.72,0,.37-.31.69-.68.71-.39.02-.74-.31-.74-.7,0-.39.32-.72.71-.73Z"/>
        <path class="cls-2" d="m262.77,39.51c-.01.38-.33.69-.72.68-.4,0-.72-.34-.7-.74.01-.39.32-.69.71-.68.4,0,.72.35.71.75Z"/>
        <path class="cls-2" d="m227.1,40.86c.38.01.69.33.69.71,0,.4-.34.73-.73.72-.4-.01-.71-.34-.68-.76.02-.39.34-.68.72-.67Z"/>
        <path class="cls-2" d="m229.69,35.78c.38,0,.7.3.71.68.01.39-.32.74-.71.74-.37,0-.7-.32-.71-.69-.01-.4.31-.73.71-.73Z"/>
        <path class="cls-2" d="m263.12,42.98c-.41,0-.71-.31-.7-.73.01-.38.32-.69.7-.69.39,0,.73.35.71.74-.01.38-.33.68-.71.68Z"/>
        <path class="cls-2" d="m259.4,34.56c0,.39-.29.69-.69.7-.4,0-.74-.32-.74-.71,0-.37.33-.7.7-.71.4,0,.72.32.72.72Z"/>
        <path class="cls-2" d="m263.74,44.49c.39.01.71.35.69.75-.02.39-.36.7-.75.68-.38-.02-.67-.34-.67-.72,0-.4.33-.72.73-.71Z"/>
        <path class="cls-2" d="m226.29,50.79c-.41,0-.73-.33-.71-.73.01-.37.35-.69.71-.69.39,0,.71.34.7.74-.01.39-.31.68-.7.68Z"/>
        <path class="cls-2" d="m227.6,52.89c0,.37-.32.71-.69.72-.39.02-.72-.31-.73-.72,0-.42.31-.72.72-.71.38.01.69.32.69.7Z"/>
        <path class="cls-2" d="m257.19,32.56c0,.38-.31.69-.7.7-.41,0-.73-.31-.73-.71,0-.38.31-.7.69-.71.39,0,.74.33.73.72Z"/>
        <path class="cls-2" d="m227.09,44.36c0,.4-.29.7-.68.71-.41.01-.74-.3-.74-.7,0-.39.35-.74.73-.72.38.01.68.33.68.72Z"/>
        <path class="cls-2" d="m226.83,47.22c0,.41-.32.72-.73.71-.39,0-.68-.31-.68-.7,0-.39.3-.71.67-.72.39-.02.74.32.74.72Z"/>
        <path class="cls-2" d="m263.84,47.48c.38,0,.69.29.71.68.02.42-.28.74-.69.74-.38,0-.7-.3-.72-.67-.02-.39.31-.74.7-.75Z"/>
        <path class="cls-2" d="m232.24,34.3c0,.4-.34.73-.73.71-.37-.01-.69-.34-.69-.72,0-.4.33-.71.74-.7.4.01.68.31.68.71Z"/>
        <path class="cls-2" d="m253.95,30.21c.39,0,.73.34.73.73,0,.38-.31.69-.7.69-.41,0-.72-.3-.72-.71,0-.38.32-.7.69-.7Z"/>
        <path class="cls-2" d="m236.83,30.88c0,.38-.31.7-.69.7-.39,0-.73-.32-.72-.72,0-.41.32-.71.74-.69.39.01.68.32.67.71Z"/>
        <path class="cls-2" d="m233.35,65.64c.01.42-.32.76-.73.78-.42.01-.77-.31-.78-.73-.01-.41.33-.77.73-.79.4-.01.77.33.78.74Z"/>
        <path class="cls-2" d="m244.9,66.38c0,.39-.29.7-.68.71-.4.02-.74-.3-.75-.7,0-.37.31-.7.68-.72.4-.02.74.3.74.7Z"/>
        <path class="cls-2" d="m247.75,66.32c-.01.4-.35.7-.76.68-.38-.02-.68-.34-.66-.73.01-.38.34-.69.71-.69.39,0,.73.35.71.74Z"/>
        <path class="cls-2" d="m252.51,65.55c-.38-.01-.68-.33-.68-.72,0-.4.33-.72.73-.71.38.01.69.34.69.71,0,.39-.35.72-.75.71Z"/>
        <path class="cls-2" d="m250.54,65.76c0,.4-.31.73-.71.73-.37,0-.7-.32-.71-.7-.01-.4.31-.72.72-.72.39,0,.69.29.7.69Z"/>
        <path class="cls-2" d="m239.32,65.31c0,.37-.33.7-.7.71-.39,0-.72-.33-.72-.73,0-.39.3-.69.69-.7.41,0,.73.32.73.71Z"/>
        <path class="cls-2" d="m242.06,66.04c0,.38-.29.71-.67.73-.39.02-.75-.31-.76-.7,0-.38.29-.7.68-.72.42-.02.74.27.75.69Z"/>
        <path class="cls-2" d="m240.67,25.79c.42,0,.77.32.78.74,0,.4-.35.77-.75.78-.41,0-.76-.33-.76-.75,0-.43.31-.76.74-.77Z"/>
        <path class="cls-2" d="m266.37,59.14c0,.42-.34.76-.75.76-.41,0-.75-.35-.75-.76,0-.42.33-.75.76-.75.43,0,.75.32.75.75Z"/>
      </g>
    </g>
    <circle class="cls-1" cx="448.26" cy="179.64" r="45.18"/>
    <circle class="cls-2" cx="251.43" cy="257.91" r="173.97"/>
    <g>
      <path class="cls-2" d="m61.53,177.7c-.09.17-.04.35-.04.52,0,6.2,0,12.4,0,18.6,0,1.46-.77,2.5-2.07,2.8-.24.06-.5.07-.75.07-8.99,0-17.98,0-26.96,0-1.72,0-2.82-1.1-2.82-2.83,0-6.22,0-12.43,0-18.65,0-.17.04-.35-.07-.57-.66.48-1.3.95-1.95,1.41-.96.67-1.97.74-2.99.17-1.77-.98-1.89-3.4-.23-4.64,1.65-1.23,3.32-2.42,4.99-3.63,4.87-3.54,9.74-7.07,14.61-10.61,1.43-1.04,2.48-1.05,3.91,0,6.47,4.7,12.94,9.41,19.42,14.1.61.44,1.08.98,1.26,1.73.27,1.12-.15,2.26-1.09,2.91-.93.65-2.16.68-3.11.04-.58-.39-1.14-.82-1.71-1.23-.12-.08-.21-.21-.39-.21Zm-16.35,20.39c4.46,0,8.91,0,13.37,0,.97,0,1.32-.35,1.32-1.32,0-6.65,0-13.3,0-19.95,0-.31-.11-.48-.35-.66-4.66-3.37-9.31-6.75-13.96-10.14-.31-.22-.5-.21-.8,0-4.65,3.39-9.3,6.77-13.96,10.14-.26.19-.34.39-.34.7,0,6.62,0,13.24,0,19.86,0,1.03.33,1.36,1.37,1.36,4.44,0,8.88,0,13.33,0Zm21.11-21.21c-.01-.52-.29-.84-.67-1.12-6.51-4.73-13.02-9.46-19.53-14.19-.72-.53-1.09-.53-1.81,0-5.59,4.06-11.19,8.13-16.78,12.19-.98.71-1.96,1.41-2.93,2.13-.5.37-.63.95-.37,1.47.26.49.83.73,1.37.56.25-.08.44-.25.64-.4,6.05-4.4,12.1-8.79,18.15-13.19.73-.53.9-.53,1.62,0,5.6,4.07,11.21,8.15,16.81,12.22.57.41,1.13.83,1.7,1.23.37.26.79.27,1.19.06.39-.21.57-.55.6-.96Z"/>
      <path class="cls-2" d="m45.19,195.18c-6.12.02-11.12-4.98-11.13-11.12-.01-6.14,4.96-11.13,11.1-11.13,6.14,0,11.12,4.96,11.13,11.11,0,6.14-4.96,11.12-11.1,11.14Zm-.02-1.61c5.23,0,9.49-4.24,9.51-9.49.02-5.26-4.24-9.53-9.5-9.54-5.24,0-9.49,4.23-9.51,9.48-.02,5.26,4.24,9.54,9.49,9.55Z"/>
      <path class="cls-2" d="m45.18,192.37c-4.61,0-8.32-3.72-8.32-8.33,0-4.59,3.76-8.33,8.35-8.32,4.57.01,8.3,3.75,8.3,8.32,0,4.61-3.72,8.33-8.33,8.33Zm-.01-1.61c3.71,0,6.72-2.98,6.73-6.68,0-3.71-2.98-6.73-6.68-6.75-3.7-.02-6.74,2.99-6.75,6.67-.02,3.74,2.97,6.75,6.7,6.76Z"/>
      <path class="cls-2" d="m47.78,185.83c-.05.85-.51,1.61-1.46,2.04-.22.1-.34.19-.35.47,0,.48-.35.79-.79.79-.44,0-.77-.3-.79-.79-.01-.24-.1-.33-.31-.4-.46-.15-.85-.43-1.14-.82-.28-.38-.23-.84.1-1.12.32-.27.8-.28,1.08.07.4.49.92.45,1.43.37.38-.06.59-.34.61-.72.02-.38-.17-.65-.53-.79-.23-.09-.47-.06-.71-.07-1.14-.04-2.06-.82-2.3-1.95-.22-1.07.34-2.18,1.37-2.64.26-.12.39-.23.39-.54,0-.44.38-.75.8-.74.42,0,.77.31.78.76,0,.29.13.37.36.45.45.15.82.42,1.1.81.28.38.23.85-.1,1.12-.33.27-.79.28-1.08-.07-.38-.44-.84-.46-1.34-.4-.44.06-.73.42-.71.84.02.42.34.73.79.75.36.01.72.01,1.06.12,1.01.3,1.72,1.25,1.72,2.48Z"/>
    </g>
    <g>
      <path class="cls-2" d="m450.18,168.24c-.43,1.67.53,3.09,1.71,4.44.05.06.11.12.16.18.92,1.12.75,2.28-.5,3-.42.24-.5.5-.35.89.26.72.13,1.33-.47,1.81-.16.13-.1.21,0,.35.53.85.48,1.35-.2,2.06-.14.15-.24.3-.27.5-.03.27-.09.54-.08.81.05,1.53-.84,2.01-2.08,2.09-.89.06-1.75-.19-2.63-.28-2-.21-3.03.51-3.51,2.45-.26,1.03-.31,1.07-1.37,1.07-4.04,0-8.08,0-12.12,0-.1,0-.19,0-.29,0-.88-.02-1.19-.51-.82-1.3.62-1.31,1.16-2.65,1.52-4.05.42-1.6.65-3.21.48-4.87-.07-.75-.37-1.38-.84-1.96-1.66-2.02-2.66-4.33-2.79-6.95-.25-5.2,1.89-9.2,6.45-11.68,7.41-4.03,16.45.48,17.88,8.8.13.78.17,1.57.13,2.62Zm-1.55.16c.28-6.93-5.32-12.21-11.92-11.42-4.08.49-7.03,2.7-8.63,6.47-1.62,3.82-1.08,7.48,1.45,10.77.96,1.24,1.42,2.55,1.42,4.09,0,2.55-.63,4.96-1.6,7.29-.18.43-.08.5.34.49,3.41-.01,6.82-.01,10.23,0,.4,0,.57-.12.7-.51.62-1.86,1.87-2.95,3.89-3.06.68-.04,1.35.06,2.01.18.54.1,1.08.18,1.63.13.32-.03.48-.15.47-.51-.02-.68.09-1.34.4-1.96.11-.22.47-.34.36-.61-.1-.24-.4-.36-.63-.5-.07-.04-.14-.08-.2-.13-.28-.2-.38-.47-.32-.8.06-.32.27-.5.57-.58.12-.03.25-.06.38-.09.43-.09.59-.29.47-.78-.25-1.02.06-1.71.87-2.19.7-.41.7-.42.17-1.05-1.35-1.58-2.45-3.26-2.05-5.25Z"/>
      <path class="cls-2" d="m466.29,191.41c0-3.6,0-7.21,0-10.81,0-.86.23-1.09,1.08-1.1,1.32,0,2.64,0,3.96,0,.75,0,1.02.27,1.02,1.02,0,7.22,0,14.45,0,21.67,0,.79-.26,1.04-1.04,1.04-1.35,0-2.7,0-4.05,0-.69,0-.96-.27-.96-.97,0-3.62,0-7.24,0-10.86Zm1.54-.05c0,3.3,0,6.59,0,9.89,0,.36.08.47.45.45.66-.03,1.32-.03,1.98,0,.42.02.57-.08.57-.54-.03-1.93-.01-3.86-.01-5.79,0-4.62,0-9.23,0-13.85,0-.38-.09-.51-.48-.49-.67.03-1.35.03-2.03,0-.38-.02-.48.1-.48.48.02,3.28,0,6.56,0,9.84Z"/>
      <path class="cls-2" d="m463.98,193.52c0,2.88,0,5.76,0,8.64,0,.85-.24,1.08-1.09,1.08-1.33,0-2.67,0-4,0-.69,0-.97-.28-.97-.97,0-5.84,0-11.68,0-17.51,0-.72.27-.99,1-1,1.37,0,2.73,0,4.1,0,.69,0,.96.29.97.98,0,2.93,0,5.85,0,8.78Zm-4.52-.03c0,2.59,0,5.18,0,7.76,0,.36.09.47.46.46.71-.03,1.41-.02,2.12,0,.3,0,.42-.05.42-.39-.01-5.21-.01-10.42,0-15.62,0-.34-.14-.4-.43-.39-.66.02-1.32.03-1.98,0-.45-.03-.6.09-.6.57.03,2.54.01,5.08.01,7.62Z"/>
      <path class="cls-2" d="m466.41,174.98c-.4,0-.8.01-1.19,0-.53-.02-.86-.33-.86-.78,0-.43.32-.75.83-.75,1.16-.02,2.32-.02,3.48,0,.62.01.92.37.81.99-.21,1.15-.44,2.3-.69,3.45-.1.47-.51.72-.94.62-.4-.09-.65-.48-.57-.93.07-.42.17-.85.26-1.28-.21,0-.3.15-.42.24-7.54,5.92-15.9,10.35-24.93,13.55-.18.06-.36.15-.55.18-.42.08-.73-.08-.9-.47-.16-.37,0-.79.4-.97.34-.15.69-.26,1.04-.39,8.61-3.11,16.59-7.35,23.81-13,.15-.12.3-.24.45-.36,0-.04-.02-.08-.03-.11Z"/>
      <path class="cls-2" d="m455.59,195.85c0,2.11,0,4.21,0,6.32,0,.85-.23,1.07-1.09,1.07-1.33,0-2.67,0-4,0-.67,0-.95-.27-.95-.93,0-4.29,0-8.58,0-12.88,0-.66.28-.93.96-.93,1.38,0,2.76,0,4.15,0,.69,0,.94.28.94.98,0,2.12,0,4.24,0,6.37Zm-1.54.06c0-1.82,0-3.64,0-5.45,0-.3-.07-.43-.4-.42-.72.02-1.45.02-2.17,0-.33,0-.41.12-.4.42.02.63,0,1.25,0,1.88,0,2.96,0,5.92,0,8.88,0,.38.1.5.48.48.69-.03,1.38-.03,2.07,0,.35.01.43-.1.42-.43-.02-1.79,0-3.57,0-5.36Z"/>
      <path class="cls-2" d="m441.17,198.12c0-1.37,0-2.73,0-4.1,0-.73.26-.99.99-.99,1.35,0,2.7,0,4.05,0,.75,0,1,.26,1,1.03,0,2.72,0,5.43,0,8.15,0,.79-.25,1.03-1.04,1.03-1.32,0-2.64,0-3.95,0-.82,0-1.05-.23-1.05-1.07,0-1.35,0-2.7,0-4.05Zm4.5,0c0-1.05,0-2.09,0-3.14,0-.31-.08-.43-.41-.42-.74.02-1.48.01-2.22,0-.25,0-.34.08-.34.33,0,2.16,0,4.31,0,6.47,0,.25.07.34.33.33.74-.01,1.48-.02,2.22,0,.36.01.42-.13.42-.45-.02-1.05,0-2.09,0-3.14Z"/>
      <path class="cls-2" d="m444.82,169.59c0,1.17-.21,2.29-.85,3.27-1.17,1.82-1.69,3.8-1.62,5.95.02.59-.22,1.07-.69,1.42-.21.15-.28.31-.27.56.02.62-.24,1.13-.76,1.48-.19.13-.23.26-.25.47-.07,1.19-.76,1.84-1.96,1.84-.35,0-.71.01-1.06,0-1.04-.04-1.74-.74-1.78-1.77,0-.21-.01-.39-.23-.53-.55-.34-.79-.87-.8-1.51,0-.21-.04-.35-.23-.48-.56-.36-.8-.9-.78-1.56.02-.85-.07-1.7-.21-2.54-.21-1.19-.78-2.23-1.38-3.27-1.16-2.02-1.17-4.11-.21-6.2,1.33-2.88,4.55-4.47,7.59-3.81,3.21.7,5.48,3.45,5.5,6.68Zm-5.06,4.91c0,.72.02,1.45,0,2.17,0,.32.1.44.41.4.14-.02.29,0,.43,0,.19.01.29-.04.31-.26.16-1.74.84-3.29,1.74-4.75.38-.61.55-1.29.61-2.01.21-2.67-1.72-5.19-4.33-5.63-2.8-.47-5.44,1.18-6.14,3.84-.36,1.38-.25,2.71.51,3.95.8,1.3,1.41,2.67,1.61,4.2.08.66.08.64.73.67.4.02.47-.14.47-.49-.02-1.25,0-2.51,0-3.77q0-.87-.85-.95c-1.14-.11-2.01-1.08-1.98-2.23.03-1.16.98-2.11,2.13-2.14,1.15-.03,2.12.84,2.23,1.98.02.21.02.42.02.63,0,.2.13.23.29.23.17,0,.28-.05.27-.24,0-.16,0-.32,0-.48.09-1.33,1.24-2.29,2.5-2.09,1.29.2,2.12,1.43,1.82,2.7-.24,1.01-1.09,1.64-2.31,1.65-.39,0-.49.12-.48.5.03.71,0,1.42,0,2.12Zm-1.55-.04c0-.74,0-1.48,0-2.21,0-.18.01-.35-.26-.35-.28,0-.31.15-.31.37,0,1.49,0,2.98,0,4.47,0,.23.05.35.32.35.29,0,.24-.19.25-.36,0-.75,0-1.51,0-2.26Zm-.28,4.6c.79,0,1.57,0,2.36,0,.21,0,.52.07.5-.28-.02-.31-.3-.16-.46-.16-1.25-.02-2.5,0-3.76,0-.42,0-.83,0-1.25,0-.11,0-.24-.02-.24.15,0,.15.05.25.2.28.11.02.22.02.34.02.77,0,1.54,0,2.31,0Zm.05,1.97c.5,0,1,0,1.49,0,.16,0,.34,0,.36-.22.02-.27-.2-.2-.34-.2-1.01,0-2.02,0-3.04,0-.14,0-.36-.09-.36.18,0,.24.21.25.39.25.5,0,1,0,1.49,0Zm2.18-10.69c.59,0,.89-.23.9-.63,0-.34-.29-.65-.63-.66-.42,0-.65.32-.67.87-.01.35.12.47.41.42Zm-4.05-.39c0-.59-.21-.88-.62-.9-.34-.01-.65.28-.67.62-.01.42.3.65.87.67.34.01.49-.09.42-.4Zm1.89,12.63c-.21,0-.42,0-.63,0-.11,0-.23,0-.24.16,0,.15.06.27.2.28.43.01.87.02,1.3,0,.14,0,.21-.14.2-.28-.01-.16-.15-.14-.26-.15-.19,0-.39,0-.58,0Z"/>
      <path class="cls-2" d="m438.7,160.78c0,.26.02.51,0,.77-.03.43-.3.68-.72.7-.39.02-.7-.18-.77-.58-.09-.6-.1-1.22,0-1.81.07-.4.38-.58.78-.55.4.03.65.27.69.67.03.27,0,.54,0,.82,0,0,0,0,0,0Z"/>
      <path class="cls-2" d="m430.74,166.09c-.01.55-.56.93-1.06.7-.49-.23-.97-.51-1.41-.81-.35-.24-.41-.61-.2-.98.21-.37.56-.5.95-.32.49.23.95.53,1.42.81.22.13.3.37.31.6Z"/>
      <path class="cls-2" d="m432.63,160.72c.28,0,.5.13.64.36.25.41.5.82.72,1.25.22.41.1.84-.26,1.05-.38.22-.82.11-1.08-.3-.25-.41-.51-.82-.72-1.25-.27-.54.11-1.12.69-1.11Z"/>
      <path class="cls-2" d="m446.03,166.85c-.46,0-.69-.17-.82-.48-.13-.32-.07-.63.19-.83.47-.36.99-.65,1.53-.89.3-.13.61-.02.82.24.21.26.29.59.07.84-.5.59-1.21.85-1.8,1.12Z"/>
      <path class="cls-2" d="m444.03,161.53c-.02.07-.04.22-.11.34-.22.41-.45.81-.69,1.21-.25.4-.71.51-1.08.29-.36-.22-.47-.64-.25-1.05.23-.44.48-.87.75-1.28.21-.32.54-.39.89-.27.32.11.48.36.5.77Z"/>
    </g>
  </g>
</svg>