<?xml version="1.0" encoding="UTF-8"?>
<svg id="Capa_2" data-name="Capa 2" xmlns="http://www.w3.org/2000/svg" viewBox="0 0 74.55 76.32">
  <defs>
    <style>
      .cls-1 {
        fill: #2828db;
        stroke-width: 0px;
      }
    </style>
  </defs>
  <g id="Capa_1-2" data-name="Capa 1">
    <g>
      <path class="cls-1" d="m32.69,13.62c-.21,1.4-.41,2.8-.57,4.21-.04.35-.13.46-.4.53-1.62.43-3.18,1.09-4.79,2.04-.11.07-.2.1-.28.1-.1,0-.21-.05-.37-.18-1.1-.9-2.21-1.77-3.33-2.64-.4-.31-.74-.46-1.07-.46-.37,0-.72.18-1.1.57-1.3,1.33-2.58,2.66-3.86,4.01-.67.71-.69,1.32-.08,2.11.87,1.12,1.75,2.23,2.64,3.33.2.25.22.38.06.64-.93,1.52-1.59,3.11-1.98,4.73-.08.35-.22.45-.62.5-1.38.16-2.78.36-4.21.57-1,.15-1.37.58-1.38,1.59-.01,1.85-.01,3.71,0,5.56,0,1.05.38,1.48,1.41,1.64l.49.07c1.19.18,2.43.36,3.65.49.43.04.58.17.66.54.39,1.62,1.05,3.19,1.96,4.66.2.32.15.49-.08.78-.83,1.05-1.63,2.13-2.43,3.2-.64.86-.61,1.44.14,2.23,1.23,1.29,2.46,2.56,3.7,3.84.44.45.8.65,1.19.65.33,0,.67-.15,1.09-.48,1.1-.86,2.19-1.72,3.27-2.6.15-.13.26-.18.35-.18.08,0,.17.03.29.1,1.47.91,3.09,1.58,4.8,2.01.29.07.39.19.43.51.11.97.25,1.94.39,2.91l.2,1.45c.12.86.63,1.31,1.5,1.31h2.82s2.82,0,2.82,0c.86,0,1.37-.46,1.49-1.33.07-.5.14-1.01.21-1.51.13-.95.27-1.9.38-2.86.04-.32.13-.43.43-.51,1.53-.39,3.08-1.05,4.72-2.01.13-.07.23-.11.32-.11.11,0,.23.06.4.19.96.79,1.95,1.56,2.93,2.33l.34.27c.42.33.77.48,1.1.48.39,0,.75-.2,1.18-.64,1.22-1.26,2.43-2.52,3.64-3.79.81-.85.85-1.42.16-2.35l-.13-.18c-.76-1.01-1.52-2.02-2.3-3.02-.21-.27-.23-.4-.07-.65.93-1.51,1.61-3.13,2.02-4.8.08-.32.2-.42.56-.46,1.25-.14,2.52-.34,3.74-.54l.24-.04c.93-.15,1.32-.59,1.33-1.54,0-.65,0-1.3,0-1.95v-1.72c0-.66,0-1.32,0-1.98-.01-1.01-.38-1.44-1.37-1.59l-.32-.05c-1.27-.19-2.59-.38-3.89-.53-.4-.04-.54-.15-.62-.49-.4-1.64-1.06-3.23-1.98-4.73-.16-.26-.15-.39.06-.64.76-.93,1.5-1.87,2.24-2.82l.3-.39c.73-.93.7-1.52-.09-2.35-1.23-1.29-2.46-2.57-3.7-3.84-.41-.42-.78-.62-1.16-.62-.33,0-.67.14-1.06.45-1.12.87-2.23,1.75-3.33,2.64-.14.12-.24.16-.33.16-.07,0-.15-.03-.25-.09-1.51-.93-3.15-1.62-4.87-2.05-.27-.07-.35-.16-.38-.45-.17-1.41-.37-2.82-.58-4.29-.15-1.03-.59-1.42-1.62-1.43-.92,0-1.84,0-2.76,0s-1.77,0-2.65,0c-1.04,0-1.45.37-1.61,1.44Zm2.25,3.96c.11-.76.22-1.53.31-2.3.04-.31.11-.36.42-.36h0c.46.01.93.02,1.4.02.41,0,.83,0,1.31-.03.29,0,.37.06.42.47.08.72.18,1.43.29,2.14.09.61.18,1.22.25,1.83.1.81.52,1.28,1.3,1.43,2.13.41,4.12,1.24,5.93,2.47.33.23.65.34.97.34.37,0,.73-.15,1.1-.45.47-.38.94-.76,1.42-1.13.56-.44,1.11-.88,1.66-1.33.13-.11.22-.16.29-.16s.15.06.26.18c.57.64,1.21,1.3,1.93,2.01.2.2.2.28.01.5-.38.46-.75.93-1.11,1.4-.44.56-.89,1.12-1.34,1.67-.61.73-.65,1.43-.12,2.2,1.19,1.72,2,3.67,2.42,5.79.17.84.63,1.28,1.45,1.37.69.08,1.37.18,2.05.28.67.09,1.33.19,2,.27.35.04.41.1.4.4-.03.9-.03,1.86,0,2.95,0,.28-.04.33-.34.37-.63.08-1.25.17-1.88.27-.65.1-1.29.19-1.94.28-.79.1-1.25.53-1.41,1.33-.42,2.13-1.24,4.11-2.44,5.86-.5.74-.47,1.41.1,2.13.4.5.78,1.02,1.17,1.53.39.52.78,1.03,1.18,1.54.2.26.2.34-.03.56-.75.73-1.35,1.35-1.88,1.96-.18.21-.27.21-.3.21-.08,0-.19-.06-.36-.2-.49-.41-.99-.8-1.49-1.19-.49-.39-.98-.77-1.46-1.17-.39-.32-.76-.48-1.15-.48-.32,0-.64.1-.98.31-2.16,1.33-4.08,2.13-6.02,2.51-.68.13-1.1.6-1.19,1.36-.08.61-.16,1.21-.25,1.82-.11.77-.22,1.54-.31,2.31-.04.33-.11.36-.41.36h0c-.47-.01-.94-.02-1.4-.02-.44,0-.87,0-1.35.02-.25,0-.31-.04-.35-.39-.08-.68-.18-1.36-.28-2.04-.1-.67-.19-1.34-.27-2.01-.1-.82-.52-1.28-1.3-1.43-2.14-.42-4.14-1.25-5.93-2.47-.33-.23-.65-.34-.97-.34-.37,0-.73.15-1.09.45-.47.38-.94.75-1.41,1.13-.56.44-1.12.88-1.66,1.33-.13.11-.22.16-.29.16-.02,0-.1,0-.25-.18-.57-.63-1.22-1.31-1.99-2.07-.17-.17-.17-.23-.01-.44.38-.48.74-.97,1.11-1.46.42-.56.84-1.12,1.28-1.67.57-.72.6-1.4.09-2.13-1.21-1.76-2.03-3.73-2.44-5.86-.15-.79-.62-1.22-1.41-1.32-.66-.08-1.31-.17-1.96-.27-.72-.1-1.44-.21-2.16-.29-.3-.04-.34-.08-.33-.37.02-.98.02-1.96,0-2.94,0-.28.04-.33.33-.37.73-.08,1.45-.19,2.18-.29.65-.09,1.3-.19,1.95-.27.8-.1,1.26-.53,1.41-1.32.4-2.1,1.24-4.1,2.48-5.93.19-.28.36-.6.33-.96.03-.47-.23-.81-.46-1.1l-.64-.81c-.58-.74-1.17-1.49-1.77-2.22-.27-.33-.27-.43,0-.67.71-.65,1.35-1.36,1.83-1.91.17-.19.25-.21.3-.21.07,0,.17.05.3.16.52.44,1.06.86,1.59,1.28.48.37.95.75,1.42,1.13.38.32.76.47,1.14.47.32,0,.64-.1.99-.32,2.14-1.32,4.06-2.12,6.02-2.51.68-.13,1.09-.6,1.19-1.36.08-.61.16-1.22.25-1.83Z"/>
      <path class="cls-1" d="m74.46,52.01c-.2-.55-.68-.89-1.28-.89-.21,0-.42.04-.64.12-.29.1-.58.22-.87.34l-.15.06s.06-.13.06-.13c1.99-5.86,2.52-11.91,1.55-17.98-1.09-6.9-3.99-13.08-8.6-18.37-.16-.18-.37-.28-.55-.36-.18-.08-.33-.16-.37-.26-.19-.61-.6-.98-1-1.34-.12-.11-.24-.22-.35-.33-.4-.41-.82-.62-1.23-.62-.34,0-.66.15-.94.43-.6.61-.51,1.44.23,2.17.23.23.47.45.71.68.62.59,1.26,1.19,1.8,1.9l.5.66c.95,1.25,1.94,2.53,2.74,3.91,4.09,6.96,5.54,14.66,4.31,22.9-.29,1.95-.75,3.78-1.4,5.58h0c-.12-.34-.23-.63-.35-.92-.26-.62-.73-.98-1.29-.98-.16,0-.33.03-.5.09-.77.29-1.09,1.02-.81,1.83.5,1.41,1.01,2.8,1.53,4.13.32.82.85.99,1.25.99.21,0,.44-.05.69-.14,1.37-.53,2.73-1.08,4.08-1.65.8-.34,1.16-1.06.89-1.8Z"/>
      <path class="cls-1" d="m3.17,27.79c.18.08.37.12.56.12.49,0,.93-.28,1.21-.76.06-.11.11-.24.16-.36l.06-.15c3.9-9.2,10.63-15.64,20.01-19.16,1.61-.6,3.23-1.05,4.93-1.36l-.39.49c-.35.45-.51.9-.46,1.31.04.33.22.63.52.86.25.19.52.29.81.29.44,0,.88-.25,1.27-.71.87-1.05,1.74-2.1,2.61-3.15.3-.37.44-.77.4-1.16-.04-.38-.25-.73-.62-1.02-1.15-.91-2.31-1.81-3.48-2.69-.31-.23-.64-.35-.98-.35-.4,0-.76.17-1.02.49-.53.64-.41,1.46.3,2.04.27.23.55.44.83.65l.13.1-.52.12C17.57,6.02,8.78,12.88,3.38,23.79c-.33.66-.64,1.41-.97,2.29-.26.7.05,1.41.75,1.71Z"/>
      <path class="cls-1" d="m36.72,73.57c-.08,0-.16,0-.3,0,0,0-.17,0-.17,0-10.14-.32-18.71-4.34-25.46-11.96-.03-.04-.07-.08-.11-.11-.08-.08-.14-.14-.17-.2l.39.04c.46.05.93.1,1.47.12.76,0,1.34-.51,1.42-1.23.08-.76-.45-1.4-1.24-1.49-1.35-.17-2.82-.32-4.61-.48-.05,0-.11,0-.16,0-.71,0-1.2.42-1.29,1.09-.2,1.51-.36,3.1-.49,4.84-.03.34.08.67.3.92.23.27.58.44.96.47h.1c.67,0,1.23-.49,1.35-1.19.04-.24.07-.48.11-.76v-.04c.05.05.09.09.13.14,5.56,6.23,12.48,10.24,20.56,11.9,2.29.47,4.59.71,6.83.71h.34c.87-.01,1.46-.55,1.48-1.35.01-.78-.56-1.34-1.43-1.4Z"/>
      <path class="cls-1" d="m45.42,6.53c.6.22,1.19.38,1.73.49.09.02.17.03.26.03.72,0,1.32-.6,1.34-1.34.02-.58-.24-1.03-.74-1.26-.63-.29-1.3-.48-1.98-.57-.06,0-.13-.01-.19-.01-.68,0-1.23.46-1.34,1.11-.12.74.22,1.3.92,1.55Z"/>
      <path class="cls-1" d="m57.51,66.75c-.2,0-.4.06-.59.17-.6.35-1.16.74-1.67,1.15-.45.36-.57.92-.33,1.5.21.52.64.84,1.14.86h0c.75,0,2.47-1.13,2.71-1.78.21-.55.09-1.08-.34-1.49-.28-.27-.6-.41-.92-.41Z"/>
      <path class="cls-1" d="m4.77,51.75c-.23-.25-.53-.38-.86-.38-.25,0-.5.08-.75.22-.58.35-.81.91-.62,1.48.22.66.49,1.29.8,1.87.23.43.62.67,1.1.67.15,0,.31-.02.47-.07.58-.17.9-.62.98-1.45-.06-.15-.11-.31-.17-.47-.21-.61-.44-1.31-.95-1.86Z"/>
      <path class="cls-1" d="m47.09,71.92c-.09,0-.17,0-.27.02-.55.09-1.15.26-1.81.51-.7.26-1.01.86-.83,1.6.18.77.75,1.04,1.18,1.04h0c.51-.01,2.03-.41,2.3-.57.64-.39.88-.96.68-1.6-.2-.63-.66-1-1.26-1Z"/>
      <path class="cls-1" d="m39.91,5.58c.48.09,1.02.16,1.63.2h.1c.71,0,1.28-.47,1.38-1.16.12-.79-.33-1.41-1.13-1.57-.36-.07-.74-.11-1.13-.15-.18-.02-.37-.04-.63-.06-.73,0-1.31.51-1.4,1.21-.09.79.36,1.37,1.17,1.53Z"/>
      <path class="cls-1" d="m1.95,32.66c.15.04.3.07.45.07.54,0,.97-.31,1.18-.85.17-.43.29-.89.39-1.29.04-.16.08-.31.12-.49.05-.89-.3-1.44-1.02-1.61-.14-.03-.27-.05-.4-.05-.56,0-1,.32-1.21.88-.22.61-.39,1.22-.49,1.82-.12.73.25,1.31.98,1.52Z"/>
      <path class="cls-1" d="m3.91,48.56c-.05-.18-.09-.37-.13-.56-.11-.47-.22-.95-.41-1.41-.21-.51-.63-.8-1.15-.8-.14,0-.28.02-.43.06-.71.2-1.09.75-1.01,1.42.08.67.25,1.33.49,1.99.19.52.62.82,1.18.82.12,0,.25-.01.37-.04.66-.14,1.02-.61,1.09-1.48Z"/>
      <path class="cls-1" d="m52.53,69.8c-.13,0-.27.02-.4.06-.63.2-1.26.48-1.86.85-.35.21-.57.58-.61,1-.03.45.15.89.49,1.18.26.22.55.33.86.33.4,0,.77-.18,1.15-.37.14-.07.29-.13.44-.2.56-.24,1.2-.5,1.23-1.3,0-.47-.15-.89-.43-1.18-.23-.24-.55-.37-.87-.37Z"/>
      <path class="cls-1" d="m50.49,8.21c.67.47,1.37.81,2.07.99.11.03.22.04.32.04.46,0,.87-.27,1.12-.75.3-.56.23-1.15-.18-1.53-.64-.6-1.47-.89-2.19-1.15l-.21-.05c-.7.07-1.14.36-1.33.88-.24.64-.09,1.22.39,1.56Z"/>
      <path class="cls-1" d="m1.68,44.31c.73-.11,1.15-.59,1.18-1.35,0-.17,0-.33,0-.48l-.04-.47c-.02-.29-.04-.54-.08-.78-.13-.76-.63-1.22-1.32-1.22-.06,0-.12,0-.18,0-.78.09-1.23.59-1.24,1.39,0,.55.04,1.16.15,1.8.11.65.65,1.11,1.31,1.11.07,0,.14,0,.22-.02Z"/>
      <path class="cls-1" d="m66.3,58.67c-.21-.09-.43-.14-.63-.14-.33,0-.61.12-.82.36-.51.57-.96,1.16-1.31,1.75-.27.44-.19,1,.21,1.46.27.31.62.47,1.01.47.12,0,.25-.02.37-.05.71-.17,2.01-1.95,1.98-2.74-.03-.49-.34-.9-.81-1.11Z"/>
      <path class="cls-1" d="m41.26,73.13h0c-.71.02-1.28.08-1.8.19-.71.15-1.13.68-1.11,1.43.02.72.58,1.25,1.37,1.28.07,0,.15,0,.22,0h.31s.43-.06.43-.06c.3-.04.58-.07.86-.13.74-.16,1.22-.78,1.14-1.48-.08-.71-.66-1.23-1.42-1.23Z"/>
      <path class="cls-1" d="m57.18,12.13c.2.11.41.16.62.16.34,0,.67-.14.92-.39.28-.28.43-.67.43-1.09l-.02-.11v-.03c-.04-.13-.07-.32-.19-.46-.59-.71-1.31-1.22-2.14-1.5-.14-.05-.28-.07-.42-.07-.47,0-.87.27-1.12.75-.32.62-.21,1.23.29,1.65.57.47,1.1.84,1.61,1.12Z"/>
      <path class="cls-1" d="m1.33,38.47h.11c.74,0,1.29-.52,1.38-1.33.06-.49.11-.98.14-1.47.04-.75-.44-1.37-1.14-1.5-.09-.01-.17-.02-.25-.02-.63,0-1.14.41-1.31,1.05-.07.26-.1.54-.13.81-.01.12-.03.24-.04.35v.19s.01,0,.01,0c-.01.12-.02.25-.02.37-.02.9.47,1.48,1.26,1.54Z"/>
      <path class="cls-1" d="m62.63,63.18c-.24-.13-.48-.2-.72-.2-.27,0-.52.09-.74.27-.53.43-1.02.91-1.46,1.41-.35.39-.39.92-.12,1.46.24.46.65.72,1.17.75h.02c.83-.03,2.48-1.59,2.52-2.39.03-.58-.2-1.02-.67-1.28Z"/>
      <path class="cls-1" d="m37.44,37c-.78,0-1.6.05-2.45.14-1.24.14-2.33.42-3.33.87-2.98,1.34-4.5,3.87-4.65,7.71-.05,1.42.35,2.62,1.17,3.47.82.86,2.02,1.31,3.46,1.32h2.29s9.22,0,9.22,0c.44,0,.89,0,1.35-.12,2.05-.54,3.31-2.2,3.3-4.33-.02-4.99-2.62-8.05-7.52-8.85-.91-.15-1.86-.22-2.84-.22Zm7.58,9.41c-.01.78-.73,1.34-1.7,1.35-.85,0-1.7,0-2.54,0h-3.4s-5.71,0-5.71,0c-.68,0-1.19-.17-1.5-.51-.31-.33-.43-.83-.38-1.49.04-.53.11-1.22.26-1.88.44-1.87,1.6-3.08,3.46-3.6,1.29-.36,2.59-.54,3.88-.54s2.49.17,3.71.5c2.74.75,3.98,2.71,3.92,6.16Z"/>
      <path class="cls-1" d="m31.92,29.87c0,3.02,2.39,5.47,5.32,5.47h0c2.93,0,5.32-2.46,5.32-5.48,0-3.06-2.32-5.48-5.35-5.51-1.38,0-2.69.55-3.68,1.54-1.05,1.05-1.62,2.46-1.62,3.98Zm7.9-.03c0,1.48-1.17,2.74-2.58,2.74-1.39,0-2.56-1.25-2.57-2.72,0-1.5,1.15-2.72,2.56-2.72v-.2s0,0,0,0v.2c1.42,0,2.57,1.21,2.57,2.7Z"/>
    </g>
  </g>
</svg>