<?xml version="1.0" encoding="UTF-8"?>
<svg id="Capa_2" data-name="Capa 2" xmlns="http://www.w3.org/2000/svg" viewBox="0 0 77.97 79.3">
  <defs>
    <style>
      .cls-1 {
        fill: #2828db;
        stroke-width: 0px;
      }
    </style>
  </defs>
  <g id="Capa_1-2" data-name="Capa 1">
    <g id="_84q8cR" data-name="84q8cR">
      <g>
        <path class="cls-1" d="m0,45.19c0-9.1,0-18.21,0-27.31,0-4.05,2.76-6.83,6.8-6.84,3.52,0,7.04,0,10.56,0,1.36,0,2.09.59,2.09,1.66,0,1.1-.77,1.72-2.15,1.73-3.49,0-6.97,0-10.46,0-2.2,0-3.45,1.26-3.45,3.47,0,15.74,0,31.47-.02,47.21,0,.83.21,1.08,1.06,1.08,10.66-.03,21.32-.03,31.98,0,.91,0,.96-.38.96-1.09-.02-6.94-.01-13.87,0-20.81,0-.43-.06-.88.16-1.29.38-.71.97-1.01,1.76-.91.81.1,1.25.62,1.42,1.38.07.32.03.67.03,1.01,0,9.34,0,18.68,0,28.02,0,3.86-2.71,6.75-6.57,6.77-9.27.05-18.54.04-27.82,0C2.71,79.24,0,76.28,0,72.5c0-9.1,0-18.21,0-27.31h0Zm20.37,24.37H6.49q-3.26,0-3.09,3.3c.09,1.73,1.33,3.02,3.06,3.02,9.23.02,18.46.02,27.69,0,1.86,0,3.1-1.24,3.21-3.1.04-.64-.05-1.29.02-1.93.12-1.02-.23-1.33-1.28-1.32-5.24.05-10.48.02-15.72.02Z"/>
        <path class="cls-1" d="m50.14.04c7.24,0,14.49.09,21.72-.04,3.41-.06,6.15,2.58,6.1,6.09-.11,8.05-.03,16.11-.03,24.16,0,3.71-2.36,6.06-6.11,6.06-9.88,0-19.76,0-29.64-.01-.83,0-1.47.21-2.11.74-2.19,1.81-4.44,3.55-6.64,5.35-.64.52-1.32.75-2.06.41-.76-.34-.99-1.05-.97-1.86.02-.91,0-1.83,0-2.74q0-1.89-1.84-1.9c-.47,0-.95-.01-1.42-.08-2.86-.37-4.95-2.62-4.96-5.51-.04-8.36-.04-16.72,0-25.08.01-3.26,2.47-5.59,5.83-5.6,7.38-.02,14.75,0,22.13,0Zm0,3.4h0c-7.31,0-14.62,0-21.93,0-1.86,0-2.65.8-2.65,2.67,0,8.05,0,16.11,0,24.16,0,1.8.8,2.6,2.6,2.65,1.25.03,2.5-.01,3.76.02,1.21.03,1.79.6,1.87,1.81.04.67,0,1.35.02,2.03,0,.22-.1.52.14.65.27.15.42-.14.59-.28,1.41-1.11,2.83-2.2,4.2-3.36.74-.63,1.53-.88,2.5-.88,10.15.02,20.31.02,30.46.01,2.05,0,2.84-.77,2.84-2.8,0-8.02,0-16.04,0-24.06,0-1.86-.79-2.62-2.68-2.62-7.24,0-14.48,0-21.73,0Z"/>
        <path class="cls-1" d="m50.01,28.66c-2.23,0-4.47,0-6.7,0-1.5,0-2.08-.59-2.09-2.09,0-2.84-.01-5.68,0-8.52,0-.66-.03-1.11-.91-.95-.84.15-1.44-.29-1.73-1.08-.31-.86.01-1.58.76-2,3.3-1.86,6.62-3.67,9.94-5.49.62-.34,1.25-.22,1.84.14.47.28.82.45,1.23-.18.39-.59,1.05-.85,1.79-.57.77.3,1.29.87,1.19,1.7-.14,1.15.41,1.69,1.35,2.14,1.31.63,2.55,1.39,3.83,2.09.82.45,1.35,1.07,1.06,2.05-.28.94-.98,1.36-1.95,1.19-.8-.14-.71.38-.71.86,0,2.81,0,5.62,0,8.42,0,1.76-.53,2.28-2.3,2.29-2.2,0-4.4,0-6.6,0Zm.04-3.39c1.56,0,3.11-.02,4.67.01.63.01.81-.21.81-.82-.02-2.94-.02-5.89,0-8.83,0-.51-.17-.81-.62-1.04-1.43-.76-2.85-1.55-4.26-2.35-.4-.23-.73-.23-1.13,0-1.44.82-2.89,1.62-4.35,2.4-.36.2-.56.42-.55.86.01,3.01.02,6.02,0,9.03,0,.58.21.76.77.75,1.56-.03,3.11,0,4.67-.01Z"/>
      </g>
    </g>
  </g>
</svg>