<?xml version="1.0" encoding="UTF-8"?>
<svg id="Capa_2" data-name="Capa 2" xmlns="http://www.w3.org/2000/svg" viewBox="0 0 57.32 61.17">
  <defs>
    <style>
      .cls-1 {
        fill: #fff;
        stroke-width: 0px;
      }
    </style>
  </defs>
  <g id="Capa_1-2" data-name="Capa 1">
    <g>
      <path class="cls-1" d="m1.08,61.17C.31,60.81,0,60.22,0,59.17c.03-4.54.02-9.07.02-13.61v-4.91c0-1.29.5-1.79,1.8-1.79h6.92c1.46,0,1.92.45,1.93,1.92v1.19s1.3-.56,1.3-.56c.4-.18.78-.34,1.17-.49,2.24-.81,4.5-1.22,6.71-1.22,2.58,0,5.19.56,7.74,1.67.31.13.56.24.72.38.89.76,1.88.86,2.64.86.12,0,.24,0,.36,0,.61-.02,1.22-.03,1.83-.03.75,0,1.51.01,2.26.04,2.69.07,4.79,2,5.13,4.69l.18,1.5s1.24-1.39,1.36-1.52l1.94-2.27c1.37-1.6,2.73-3.19,4.11-4.77,1.05-1.2,2.48-1.85,4.04-1.85,2.04,0,3.81,1.14,4.64,2.97.92,2.03.59,3.95-.96,5.7-2.42,2.73-4.84,5.45-7.26,8.16-.17.19-.33.38-.49.57-.54.63-1.05,1.22-1.66,1.72-1.72,1.45-3.71,2.19-5.92,2.2-1.93,0-3.85.01-5.78.01-2.18,0-4.36,0-6.54-.01-2.62,0-5.05-.5-7.24-1.46-2.82-1.24-5.68-1.41-8.11-1.41-.44,0-.88,0-1.32.02-.1,0-.42.01-.64.25-.2.21-.22.49-.21.67,0,.18,0,.36,0,.54,0,.29-.01.59.01.88.09.96-.25,1.57-1.07,1.96H1.08Zm2.81-19.44c-.21,0-.51.03-.74.26-.23.23-.26.56-.26.82.02,1.79.02,3.58.01,5.37v3.58c0,1.85,0,3.69,0,5.54,0,.18,0,.52.24.76.24.24.56.24.67.24.52-.01.99-.02,1.45-.02.54,0,1.08,0,1.61.02h0c.21,0,.48-.02.69-.23.21-.21.23-.49.23-.68,0-4.91,0-9.83,0-14.74,0-.19-.02-.46-.23-.67-.21-.21-.48-.23-.66-.23-.56,0-1.08.02-1.6.02-.44,0-.88,0-1.32-.02h-.09Zm31.09,15.09c1.74,0,3.47,0,5.21,0,2.1,0,3.83-.79,5.19-2.34.73-.84,1.48-1.68,2.22-2.51l2.52-2.82c1.22-1.37,2.43-2.73,3.64-4.11.59-.68.79-1.55.51-2.33-.26-.75-.92-1.28-1.75-1.42-.14-.03-.28-.04-.42-.04-.71,0-1.33.32-1.91.99-.96,1.12-1.92,2.23-2.87,3.34-1.64,1.91-3.28,3.81-4.91,5.73-.47.56-.98.8-1.68.8-1.03-.01-2.02-.01-3.01-.01h-10.75c-.41,0-.66,0-.89-.1-.64-.26-1.01-.89-.92-1.55.1-.71.67-1.2,1.41-1.22.46-.01.92-.02,1.37-.02h1.83s3.43,0,3.43,0c1.14,0,2.28,0,3.43.01h0c.26,0,.57-.03.8-.26.23-.23.26-.55.26-.78,0-1.78-.93-2.72-2.66-2.73-.95,0-1.9,0-2.86,0s-1.9,0-2.86,0c-.58,0-1.02-.15-1.38-.49-.58-.53-1.28-.94-2.13-1.27-1.91-.74-3.9-1.12-5.91-1.12-1.57,0-3.19.23-4.82.69-1.31.37-2.37.9-3.25,1.64-.4.33-1.13.95-1.14,1.93-.01,1.19-.01,2.39-.01,3.58,0,.89,0,1.78,0,2.67,0,.27.08.49.23.64.23.23.54.23.66.23h1.36c.2,0,.95-.01,1.11-.01,2.77,0,5.48.55,8.04,1.62,1.95.82,4.1,1.23,6.39,1.23h6.53Z"/>
      <path class="cls-1" d="m46.14,35.92c-.4,0-.77-.17-1.05-.47-.27-.29-.39-.65-.39-1.16v-4.35c0-2.42,0-4.83.01-7.24,0-.63-.23-1.03-.78-1.33-4.57-2.54-9.14-5.09-13.7-7.67-.54-.31-1.06-.46-1.57-.46s-1.04.15-1.59.46c-3.9,2.21-8.07,4.55-13.54,7.58-.66.37-.94.83-.93,1.55.03,3.31.02,6.63.01,9.94v.68c0,.72-.41,1.26-1.09,1.45-.11.03-.23.05-.35.05-.48,0-.94-.25-1.21-.67-.17-.25-.24-.55-.24-1v-3.13c0-1.97,0-3.94.02-5.91,0-.95-.52-1.1-1.1-1.13-2.57-.13-4.34-1.34-5.27-3.6-.89-2.17-.52-4.17,1.1-5.93.32-.34.72-.65,1.28-.96l5.68-3.18c4.84-2.71,9.68-5.43,14.53-8.13.88-.49,1.79-.74,2.68-.74s1.86.26,2.79.78c1.71.95,3.42,1.91,5.13,2.87l2.86,1.6c.13.07.26.14.41.22l.93.48.03-.79c.03-.66.06-1.21.2-1.74.62-2.31,2.77-4,5.11-4,.19,0,.38.01.57.03,2.73.31,4.74,2.49,4.79,5.18.03,1.84.02,3.69,0,5.54v1.07c0,.49.17.83.56,1.11,1.9,1.32,2.74,3.52,2.19,5.74-.57,2.31-2.46,4.07-4.7,4.38l-.23.04c-.11.02-.23.04-.33.04-.19-.03-.3-.04-.39-.04-.29,0-.53.09-.7.26-.3.3-.29.73-.29,1.07.02,3.07.02,6.14.01,9.21v.75c0,.69-.34,1.21-.93,1.43-.17.06-.34.1-.51.1ZM28.66,10.32c.99,0,1.97.28,2.99.86,3.34,1.89,6.69,3.76,10.04,5.64l5.19,2.91c.43.24,1.01.52,1.7.52h.12c1.33-.07,2.4-.95,2.72-2.26.21-.85.13-2.05-1.45-2.94l-5.8-3.25c-4.63-2.59-9.25-5.18-13.87-7.79-.58-.33-1.12-.48-1.65-.48s-1.06.16-1.62.48c-2.14,1.23-4.3,2.44-6.46,3.64l-4.95,2.77c-2.77,1.55-5.54,3.1-8.31,4.64-.98.55-1.47,1.29-1.49,2.27.03.82.31,1.49.83,2.02.56.57,1.26.88,2.02.88h0c.56,0,1.13-.16,1.69-.48l3.48-1.94c3.94-2.2,7.88-4.4,11.81-6.62,1.03-.58,2.02-.87,3.01-.87Zm17.47-7.42c-1.31,0-2.38,1.04-2.42,2.36-.02.48-.01.97-.01,1.46,0,.29,0,.57,0,.86,0,.18,0,.65.51.94.87.47,1.72.96,2.62,1.46l1.75.98v-2.35c0-1.15.01-2.25,0-3.36-.03-1.3-1.12-2.35-2.43-2.35h0Z"/>
      <path class="cls-1" d="m27.74,33.01c-.45,0-.8-.15-1.1-.45l-.88-.88c-.65-.65-1.3-1.29-1.94-1.95-.61-.63-.64-1.48-.05-2.07.27-.28.63-.43,1-.43s.76.16,1.08.46c.42.4.8.75,1.12,1.12.15.17.38.39.72.39.32,0,.54-.19.73-.38,1.34-1.37,2.69-2.73,4.06-4.07.3-.29.68-.46,1.07-.46.66,0,1.19.42,1.36,1.08.14.52.03.96-.33,1.32-1.96,1.98-3.93,3.95-5.91,5.92-.3.3-.67.38-.92.39Z"/>
    </g>
  </g>
</svg>