<?xml version="1.0" encoding="UTF-8"?>
<svg id="Capa_2" data-name="Capa 2" xmlns="http://www.w3.org/2000/svg" viewBox="0 0 88.63 85.36">
  <defs>
    <style>
      .cls-1 {
        fill: #2828db;
        stroke-width: 0px;
      }
    </style>
  </defs>
  <g id="Capa_1-2" data-name="Capa 1">
    <g id="tGMp86">
      <g>
        <path class="cls-1" d="m60.24,66.24c.27-.05.49-.05.68-.12,5.22-1.87,10.46-3.72,15.66-5.64,2.06-.76,4.11-1.36,6.33-1.15,2.66.26,4.79,1.95,5.47,4.36.72,2.55-.19,5.26-2.39,6.83-2.03,1.45-4.3,2.47-6.57,3.49-8.7,3.88-17.8,6.76-26.63,10.31-3.55,1.43-7.08.94-10.65,1.05-.42.01-.86-.25-1.28-.41-5.56-2.14-11.13-4.24-16.66-6.45-1.46-.59-2.92-.43-4.39-.49-.65-.03-.72.38-.71.88,0,.86,0,1.72,0,2.57,0,1.09-.55,1.71-1.65,1.72-5.28.01-10.56.02-15.85,0-1.11,0-1.61-.68-1.61-1.76,0-1.99,0-3.97,0-5.96,0-8.71,0-17.43,0-26.14,0-2.02.37-2.4,2.34-2.4,4.83,0,9.66,0,14.49,0,1.88,0,2.26.41,2.28,2.33.02,2.79.04,3.01,2.86,2.75,5.65-.53,10.8.61,15.49,3.82,2.62,1.8,5.51,2.44,8.7,2.17,2.33-.2,4.69-.05,7.04-.05,4.69.01,7.4,2.92,7.05,7.57-.02.22,0,.44,0,.73Zm-13.81,4.74c-1.94,0-3.88,0-5.82,0-1.22,0-2.44,0-3.66,0-1.06,0-1.81-.45-1.81-1.56,0-1.04.72-1.49,1.72-1.5.36,0,.72,0,1.08,0,5.06,0,10.11,0,15.17,0,2.56,0,4.13-1.32,4.14-3.45.01-2.14-1.56-3.48-4.09-3.49-3.25,0-6.5-.07-9.75.04-1.83.06-3.43-.33-5.02-1.23-2.75-1.55-5.48-3.23-8.42-4.32-2.98-1.1-6.25-.21-9.39-.4-.09,0-.18.01-.27,0-.95-.14-1.23.27-1.22,1.21.04,5.82.04,11.65,0,17.47,0,.99.37,1.29,1.27,1.18,2.18-.25,4.16.39,6.16,1.19,4.65,1.87,9.33,3.66,14.02,5.42,3.54,1.33,7.12,1.34,10.67.02,8.54-3.18,17.18-6.1,25.56-9.72,2.49-1.07,4.97-2.16,7.24-3.66,1.31-.87,1.81-2.27,1.43-3.65-.34-1.22-1.45-2.05-2.97-2.18-1.38-.12-2.69.21-3.97.68-4.24,1.54-8.54,2.94-12.71,4.64-6.23,2.55-12.55,4.27-19.35,3.31Zm-43.38-6.07c0,4.65.03,9.3-.02,13.95,0,.98.21,1.34,1.26,1.32,3.52-.07,7.04-.05,10.56,0,.93.01,1.24-.24,1.23-1.21-.03-9.25-.04-18.51,0-27.76,0-1.08-.39-1.26-1.33-1.25-3.48.05-6.95.05-10.43,0-.98-.01-1.32.23-1.31,1.28.06,4.56.03,9.12.03,13.68Z"/>
        <path class="cls-1" d="m75.99,23.64c-.03,13.05-10.63,23.57-23.7,23.52-12.95-.05-23.49-10.67-23.46-23.64C28.86,10.5,39.5-.05,52.55,0c12.97.05,23.47,10.64,23.44,23.64Zm-44.1.14c.17,11.41,9.51,20.5,20.87,20.33,11.28-.17,20.33-9.53,20.19-20.87-.14-11.25-9.57-20.37-20.87-20.2-11.22.17-20.37,9.57-20.2,20.74Z"/>
        <path class="cls-1" d="m64.85,12.76c-.02.54-.35.91-.71,1.27-7.08,7.08-14.17,14.16-21.24,21.25-.76.76-1.6,1.15-2.46.28-.86-.87-.46-1.7.31-2.46,7.09-7.08,14.17-14.16,21.25-21.24.59-.59,1.21-.96,2.04-.53.58.3.84.79.81,1.44Z"/>
        <path class="cls-1" d="m59.41,25.22c2.94,0,5.34,2.41,5.33,5.35,0,2.95-2.39,5.31-5.36,5.3-2.96,0-5.35-2.39-5.34-5.33.01-2.94,2.42-5.33,5.36-5.32Zm-.04,7.6c1.24.02,2.23-.93,2.28-2.17.05-1.28-.96-2.36-2.22-2.38-1.26-.02-2.31,1.05-2.29,2.32.02,1.23,1,2.21,2.23,2.23Z"/>
        <path class="cls-1" d="m40.12,16.61c0-2.98,2.33-5.33,5.3-5.34,2.96,0,5.33,2.35,5.34,5.31,0,2.96-2.36,5.34-5.31,5.35-2.96,0-5.32-2.36-5.33-5.32Zm5.35-2.28c-1.23-.02-2.25.94-2.31,2.16-.06,1.26.98,2.36,2.24,2.38,1.25.02,2.33-1.06,2.32-2.32-.02-1.21-1.02-2.21-2.25-2.23Z"/>
      </g>
    </g>
  </g>
</svg>