<?xml version="1.0" encoding="UTF-8"?>
<svg id="Capa_2" data-name="Capa 2" xmlns="http://www.w3.org/2000/svg" viewBox="0 0 43.07 54.3">
  <defs>
    <style>
      .cls-1 {
        fill: #2828db;
        stroke-width: 0px;
      }
    </style>
  </defs>
  <g id="Capa_1-2" data-name="Capa 1">
    <g>
      <path class="cls-1" d="m21.52,54.29c-1.24,0-2.48-.04-3.72,0-3.32.13-5.93-2.5-6-5.88-.04-1.83-.02-3.65,0-5.48.01-1.8-.76-3.17-2.23-4.17-4.91-3.33-7.98-7.91-9.16-13.72C-1.27,16.78,2.37,8.22,9.46,3.53,13.94.57,18.87-.39,24.14.14c8.72.87,16.14,7.15,18.26,15.57,2.29,9.04-1.48,18.1-8.76,22.96-1.62,1.08-2.42,2.53-2.4,4.48.02,1.91.04,3.83-.04,5.74-.1,2.42-1.86,4.56-4.16,5.2-.57.16-1.15.21-1.74.2-1.26,0-2.52,0-3.78,0Zm.04-12.51c1.7,0,3.39-.01,5.09,0,.42,0,.58-.1.67-.54.5-2.49,1.71-4.52,3.9-5.91,6.21-3.95,9.17-11.94,7.07-18.99-2.25-7.57-9.85-13.81-20.34-11.83-6.86,1.3-12.2,6.66-13.48,13.28-1.31,6.79,1.58,13.64,7.44,17.53,2.15,1.43,3.38,3.45,3.86,5.95.08.43.24.51.63.51,1.72-.02,3.44,0,5.15,0Zm0,4.16c-1.69,0-3.39,0-5.08,0-.28,0-.52-.02-.51.39.02.72-.03,1.44.03,2.15.09,1.13.7,1.66,1.83,1.66,2.52,0,5.04,0,7.56,0,1.1,0,1.72-.57,1.78-1.69.03-.63-.02-1.26.02-1.89.03-.48-.11-.63-.61-.62-1.67.03-3.35.01-5.02.01Z"/>
      <path class="cls-1" d="m7.45,19.39c.09-3.43,2.01-6.79,5.77-9.1,1.08-.66,2.25-.46,2.91.44.74,1.01.46,2.34-.66,3.03-1.11.68-2.08,1.51-2.76,2.62-1.59,2.59-1.35,5.25-.29,7.94.21.54.37,1.07.22,1.64-.23.86-.94,1.46-1.82,1.54-.85.08-1.67-.38-2.05-1.21-.86-1.88-1.32-3.85-1.31-6.91Z"/>
    </g>
  </g>
</svg>