<?xml version="1.0" encoding="UTF-8"?>
<svg id="Capa_2" data-name="Capa 2" xmlns="http://www.w3.org/2000/svg" viewBox="0 0 74.54 74.54">
  <defs>
    <style>
      .cls-1 {
        fill: #2828db;
        stroke-width: 0px;
      }
    </style>
  </defs>
  <g id="Capa_1-2" data-name="Capa 1">
    <g>
      <path class="cls-1" d="m74.53,60.66c-.38-1.08-1.16-1.86-1.86-2.54-1.77-1.76-3.54-3.53-5.31-5.3-2.53-2.53-5.06-5.06-7.6-7.58-.18-.18-.27-.3-.26-.37,0-.07.11-.17.31-.31,1.85-1.34,2.84-3.32,2.96-5.89.11-2.39.68-4.54,1.75-6.55,1.37-2.59,1.37-5.17,0-7.67-1.3-2.37-1.65-4.9-1.84-7.27-.17-2.18-1.21-3.99-3.07-5.37l-.22-.16c-.2-.15-.4-.31-.62-.44-1.77-1.09-3.24-2.56-4.49-4.5-1.31-2.03-2.79-3.19-4.68-3.63-.97-.23-1.97-.32-2.94-.4l-.6-.05c-.35-.03-.58-.1-.79-.24-1.94-1.25-4.05-2.01-6.28-2.26-.02,0-.07-.03-.1-.05l-.12-.07h-2.99s-.5.1-.5.1c-.4.08-.79.15-1.18.24l-.14.03c-1.02.24-2.08.49-2.98,1.07-1.66,1.07-3.48,1.33-4.88,1.43-2.18.17-4,1.24-5.39,3.18l-.23.32c-.17.23-.34.45-.49.69-1.01,1.62-2.34,2.94-3.94,3.94-.13.08-.25.17-.38.26-.09.07-.19.14-.28.2-2.29,1.51-3.52,3.7-3.64,6.53-.1,2.35-.62,4.36-1.6,6.15-1.51,2.78-1.51,5.56,0,8.27,1.2,2.14,1.49,4.51,1.7,6.95.19,2.22,1.21,4.01,3.01,5.32.2.14.21.21.21.21,0,.06-.16.22-.22.27-.87.83-1.71,1.69-2.56,2.54l-.17.17c-.67.68-.74,1.42-.19,1.99.25.25.54.38.86.38.38,0,.77-.19,1.13-.55l.56-.55c.8-.79,1.62-1.6,2.4-2.43.15-.16.26-.23.36-.23s.21.07.36.21c.66.58,1.2,1.16,1.63,1.77l.28.4c.42.6.85,1.19,1.31,1.8q.53.7-.14,1.37l-8.19,8.19c-.14.14-.29.28-.41.46-.35.54-.31,1.11.13,1.57.27.28.58.43.91.43.24,0,.49-.08.72-.23.19-.12.35-.29.5-.44l1.38-1.38c2.45-2.44,4.89-4.89,7.33-7.34.18-.18.31-.26.45-.26.09,0,.19.03.32.08,1.23.55,2.54.66,3.82.77.38.03.75.06,1.13.11.76.09,1.51.19,2.2.49-.04.06-.1.11-.17.17-.04.04-.08.07-.12.11l-16.71,16.72c-.07.07-.14.15-.22.21-.23.19-.48.29-.72.29-.41,0-.72-.31-.81-.81-.29-1.66-.51-3.32-.7-4.71-.27-2.05-1.39-3.18-3.42-3.45-1.12-.15-2.23-.31-3.34-.47l-1.02-.15c-.55-.08-.99-.18-1.15-.7-.15-.47.1-.76.52-1.18l6.72-6.72c.1-.1.21-.2.3-.31.49-.58.49-1.26.01-1.77-.25-.27-.58-.42-.91-.42s-.65.13-.92.39c-.42.39-.82.79-1.22,1.2l-2,2.01c-1.11,1.11-2.22,2.23-3.34,3.33-.7.68-1.4,1.43-1.77,2.51v1.36c.54,1.78,1.8,2.73,3.89,2.91.93.08,1.87.23,2.77.37.45.07.91.14,1.36.2.57.08.87.38.95.95.06.46.13.91.2,1.36.14.91.29,1.85.37,2.77.18,2.08,1.13,3.35,2.97,3.88h1.37c.99-.37,1.72-1.04,2.49-1.82,2.45-2.45,4.9-4.9,7.34-7.35,3.13-3.13,6.26-6.26,9.38-9.4.21-.21.36-.29.53-.29.11,0,.25.04.42.12,1.08.5,2.17.76,3.24.76s2.07-.24,3.08-.71c.2-.09.36-.14.51-.14.23,0,.44.12.73.41,3.33,3.35,6.67,6.69,10.01,10.03,2.19,2.19,4.38,4.38,6.56,6.57.64.64,1.43,1.43,2.56,1.82h1.36c1.78-.54,2.73-1.81,2.91-3.88.08-.93.23-1.87.37-2.77.07-.45.14-.91.2-1.36.08-.58.4-.88,1.02-.96.56-.07,1.13-.16,1.69-.24.86-.13,1.73-.26,2.6-.35,1.94-.19,3.13-1.14,3.67-2.94v-1.37Zm-11.92,8.4c-.09.64-.19,1.28-.27,1.93-.07.53-.27.81-.66.94-.09.03-.18.04-.26.04-.25,0-.48-.13-.77-.41l-17.08-17.09c.84-.39,1.76-.47,2.65-.55l.86-.08c1.29-.13,2.63-.26,3.87-.85.05-.03.1-.04.14-.04.09,0,.16.08.28.21.04.05.08.1.13.14,2.22,2.21,4.43,4.43,6.65,6.64l2.03,2.03c.09.1.19.19.29.28.29.25.62.39.95.39s.63-.13.88-.39c.52-.53.51-1.27-.04-1.83-.74-.76-1.49-1.51-2.23-2.25l-2.24-2.24c-1.44-1.44-2.88-2.88-4.33-4.31-.27-.27-.28-.34-.02-.65.51-.63,1-1.3,1.46-1.95.22-.3.43-.6.65-.9.4-.54.9-1.05,1.53-1.56.1-.08.17-.12.23-.12.06,0,.13.05.23.14,3.44,3.45,6.88,6.89,10.32,10.33l3.75,3.75c.36.36.46.67.33,1.03-.13.37-.41.56-.89.63-.58.08-1.16.17-1.74.25-.97.14-1.94.29-2.91.41-1.95.25-3.12,1.4-3.37,3.34-.12.91-.25,1.82-.38,2.73Zm-40.31-20.76c-1.39-2.22-3.05-3.87-5.05-5.02-2.03-1.17-2.98-3.05-3.07-6.08-.05-1.91-.55-3.68-1.46-5.27-1.42-2.47-1.42-4.84,0-7.26.97-1.67,1.48-3.67,1.56-6.14.07-2.36,1.02-4.06,2.9-5.18,2.04-1.22,3.78-2.98,5.32-5.36.92-1.43,1.95-2.21,3.24-2.46l-.06.08c-.21.28-.4.55-.58.82-.51.74-.45,1.49.16,1.94.24.18.49.27.75.27.43,0,.84-.25,1.19-.74,2.53-3.52,5.98-5.31,10.33-5.31h0c5.87.03,11.19,4.77,11.85,10.56.72,6.3-3.26,12.1-9.26,13.5-.95.22-1.92.33-2.88.33-3.57,0-6.95-1.57-9.28-4.32-2.33-2.75-3.31-6.41-2.7-10.03.16-.94-.21-1.62-.96-1.77-.1-.02-.2-.03-.29-.03-.65,0-1.11.46-1.27,1.27-.05.24-.14.41-.31.57-1.2,1.15-2.15,2.28-2.92,3.46-.15.23-.24.23-.26.23-.06,0-.15-.04-.26-.12-.22-.17-.45-.29-.68-.38-.2-.08-.4-.12-.58-.12-.44,0-.8.22-1.04.64-.24.41-.38,1.02.33,1.66.14.13.32.2.5.28.31.13.44.2.44.38,0,.22-.13.46-.27.71-.07.13-.14.26-.2.39-.93,2.13-1.49,4.41-1.67,6.77-.03.39-.13.41-.32.41-.04,0-.07,0-.12,0-.09,0-.19-.01-.28-.01-.2,0-.39.02-.57.05-.67.14-1.06.62-1.03,1.28.03.67.43,1.11,1.2,1.22q1.08.13,1.19,1.21c.26,2.39.92,4.67,1.95,6.77.09.19.12.32.09.4-.03.07-.12.14-.29.2-.06.02-.11.06-.21.12-1.21.71-.99,1.5-.75,1.91.24.42.61.65,1.04.65.31,0,.65-.12.99-.35.2-.14.36-.21.47-.21.15,0,.3.13.52.45,1.41,2.07,3.2,3.85,5.32,5.27.2.14.3.24.32.33.01.08-.04.19-.15.33-.16.21-.29.45-.37.69-.21.64,0,1.2.57,1.54.21.12.42.18.63.18.32,0,.64-.14.93-.42.05-.05.09-.1.16-.2.39-.54.52-.71.7-.71.16,0,.41.11.81.28,1.96.85,3.97,1.4,5.96,1.63.3.04.47.13.61.36.29.48.61.94.94,1.39.32.44.76.7,1.2.7s.81-.25,1.02-.7c.69-1.45,1.86-1.88,3.39-2.07,1.46-.19,2.97-.7,4.77-1.6.14-.07.25-.11.33-.11.05,0,.15,0,.26.3.08.2.2.38.32.54.28.39.67.61,1.07.61.22,0,.43-.06.64-.18.59-.34.78-1,.5-1.7-.06-.15-.16-.29-.26-.42-.17-.23-.26-.37-.21-.49.08-.17.31-.31.54-.45.12-.07.24-.14.34-.22,1.97-1.46,3.62-3.17,4.9-5.08.19-.28.29-.31.35-.31.08,0,.18.05.31.16.07.06.14.09.28.17.33.18.64.27.92.27.44,0,.8-.22,1.04-.64.18-.33.23-.66.13-.97-.11-.36-.41-.67-.86-.89-.55-.27-.6-.44-.31-1.03,1.06-2.19,1.7-4.6,1.89-7.16.04-.51.18-.55.4-.55.06,0,.13,0,.2.02.06,0,.13.01.19.01.11,0,.23-.01.36-.03.71-.08,1.15-.54,1.17-1.24.01-.38-.11-.73-.34-.96-.18-.18-.41-.28-.74-.28h-.02c-.09,0-.18.01-.27.01-.78,0-1.06-.33-1.07-1.27,0-.58-.5-1-1.16-1-.06,0-.11,0-.17,0-.71.08-1.14.55-1.14,1.28,0,.35.02.7.04,1.05.02.28.03.56.04.83.16,8.85-5.98,16.74-14.6,18.77-.02,0-.04,0-.07.01l2.94-4.36c1.07-1.58,2.13-3.16,3.2-4.73.34-.5.63-1.1.16-1.76-.25-.36-.59-.53-1.03-.53-.18,0-.37.03-.6.08-.64.16-1.29.29-1.93.43-.72.16-1.44.31-2.16.49-.07.02-.14.03-.22.03-.04,0-.08,0-.12,0-.02-.02-.05-.09-.05-.36.02-2.2.02-4.47,0-6.74,0-.33.08-.45.43-.58,4.07-1.49,7.02-4.26,8.75-8.25.55-1.26.9-2.62,1.08-4.16.04.04.08.1.12.16.03.05.07.1.1.15,1.07,1.35,1.97,2.91,2.68,4.63.28.68.73,1.05,1.26,1.05.16,0,.33-.04.5-.11.72-.29.96-1.04.62-1.91-.05-.14-.11-.27-.17-.41s-.13-.27-.21-.4c-.15-.27-.3-.53-.29-.77,0-.17.13-.24.44-.37.18-.07.36-.15.5-.29.7-.65.55-1.27.31-1.67-.25-.41-.61-.62-1.04-.62-.18,0-.38.04-.58.11-.17.06-.32.17-.46.28-.14.1-.28.21-.46.21-.02,0-.04,0-.05,0-.18-.09-.32-.32-.47-.57-.08-.13-.16-.27-.25-.39-.37-.48-.78-.93-1.19-1.36-.44-.47-.89-.96-1.26-1.47-.39-.54-.53-1.2-.69-1.9-.11-.51-.23-1.03-.44-1.52-.53-1.21-1.23-2.39-2.13-3.59.96.19,1.73.63,2.38,1.36.62.69,1.16,1.48,1.68,2.23l.16.24c.85,1.23,1.88,2.26,3.04,3.07.23.16.45.32.67.48.33.24.65.47.99.69,1.58,1.03,2.42,2.52,2.48,4.44.09,2.68.75,5.16,2.03,7.56.93,1.75.98,3.41.16,4.95-1.34,2.48-2.09,5.32-2.3,8.67-.09,1.42-.72,2.55-1.83,3.26-2.68,1.72-4.94,3.98-6.9,6.92-.99,1.48-2.63,1.76-4.11,1.83-2.67.13-4.94.74-6.94,1.84-1.04.57-2.07.86-3.07.86s-1.93-.27-2.87-.79c-2.55-1.43-5.35-1.82-8-2.02-1.41-.11-2.55-.75-3.4-1.91-.09-.12-.18-.23-.27-.35-.15-.18-.29-.37-.42-.57Zm13.07-18.39c0-.08,0-.33.07-.4.03-.03.09-.04.19-.04.06,0,.12,0,.2.01.49.06.99.1,1.46.1s.96-.03,1.41-.1c.08-.01.14-.02.2-.02.07,0,.16,0,.2.05.06.06.07.26.07.46-.01,2.01-.01,4.01,0,6.02v1.51c0,.89.16,1.8,1.29,1.8.23,0,.5-.03.83-.11.64-.14,2.66-.59,2.66-.59l-3.13,4.63c-1.13,1.67-2.25,3.33-3.38,5.01-.06.09-.14.21-.14.22,0,0-.05-.02-.16-.18-1.62-2.42-3.24-4.82-4.87-7.23l-1.63-2.45.63.14c.74.16,1.47.32,2.2.48.24.05.44.08.63.08.86,0,1.28-.54,1.28-1.64v-.22c0-2.51.02-5.02,0-7.53Zm-2.55,6.12c0,.27-.03.34-.14.38-.06,0-.15-.01-.26-.04-.75-.19-1.51-.35-2.26-.51-.63-.14-1.27-.27-1.9-.42-.2-.05-.38-.07-.54-.07-.44,0-.78.17-1.03.53-.47.66-.16,1.29.12,1.7,1.75,2.57,3.48,5.15,5.22,7.73l.85,1.26c-6.69-1.69-11.21-5.72-13.44-11.99-2.25-6.33-1.21-12.48,3.11-18.29.03.19.06.37.09.54.1.62.2,1.21.36,1.78,1.42,4.87,4.53,8.25,9.25,10.05.46.17.57.33.56.78-.04,2.4-.02,4.78,0,6.59Z"/>
      <path class="cls-1" d="m35.92,20.63s-.12-.01-.2-.04c-.8-.23-1.4-.99-1.45-1.84,0-.15-.01-.31-.02-.46,0-.3-.01-.62-.07-.93-.12-.61-.57-.98-1.25-.98h0c-.66.02-1.13.41-1.21,1.03-.4,3,1.08,5.26,3.79,5.75.42.08.51.17.51.58,0,.78.48,1.29,1.23,1.29h.06c.78-.03,1.25-.51,1.23-1.26-.01-.45.12-.54.62-.63,1.97-.37,3.52-2.05,3.69-3.99.19-2.18-.91-4.03-2.88-4.82-.39-.16-.74-.3-1.12-.39-.22-.06-.28-.13-.28-.36,0-1.47.01-2.95,0-4.42,0-.17.03-.21.1-.23.05,0,.11,0,.19.03.75.19,1.37.96,1.43,1.78.01.18.01.36.01.54,0,.23,0,.47.03.7.08.72.58,1.18,1.32,1.18h0c.71-.02,1.18-.51,1.22-1.27.02-.42.01-.83,0-1.25-.11-2.15-1.72-3.95-3.83-4.26-.39-.06-.47-.14-.48-.52-.02-.8-.53-1.36-1.31-1.36h0c-.72.03-1.21.57-1.23,1.36,0,.38-.08.46-.47.52-1.93.28-3.53,1.88-3.8,3.81-.28,1.93.52,4.21,2.58,4.84,1.68.51,1.89,1.42,1.68,2.82-.01.08-.01.15,0,.32v.62c0,.54,0,1.09,0,1.63,0,.18-.03.21-.07.22Zm.06-7.67s-.07,0-.16-.03c-.87-.25-1.5-.99-1.55-1.84-.06-.94.43-1.74,1.29-2.08.15-.06.26-.09.33-.09h.06s.06.09.04.34c-.02.39-.01.78,0,1.16v.94c0,.48,0,.96,0,1.45,0,.11,0,.15-.01.15Zm2.63,3.63s.1.01.18.03c.9.26,1.51,1.07,1.51,2.01,0,.88-.58,1.68-1.41,1.94-.07.02-.17.05-.27.05,0,0-.01,0-.02,0,0,0-.04-.04-.03-.23.02-1.21.01-2.41,0-3.62,0-.14.02-.18.02-.18,0,0,.01,0,.03,0Z"/>
    </g>
  </g>
</svg>