<?xml version="1.0" encoding="UTF-8"?>
<svg id="Capa_2" data-name="Capa 2" xmlns="http://www.w3.org/2000/svg" viewBox="0 0 72.19 70.75">
  <defs>
    <style>
      .cls-1 {
        fill: #2828db;
        stroke-width: 0px;
      }
    </style>
  </defs>
  <g id="Capa_1-2" data-name="Capa 1">
    <g>
      <path class="cls-1" d="m2.2,70.75c-.22,0-.45,0-.66-.05-.95-.2-1.61-1.08-1.54-2.04.07-.98.88-1.75,1.89-1.78.32-.01.65-.02.97-.02s.65,0,.97.02h.05c.22,0,.56-.02.8-.29.17-.19.23-.45.19-.78-.01-.11,0-.23,0-.34v-.21s0-45.28,0-45.28c0-2.63.99-4.11,3.43-5.11l8.52-3.51C25.67,7.72,34.51,4.08,43.35.45c.73-.3,1.47-.45,2.19-.45,2.71,0,4.69,2.13,4.69,5.08v.44c0,5.39.01,10.78-.01,16.17,0,.33.03.71.3.98.27.27.64.3.98.3,2.35-.01,4.66-.02,6.98-.02h6.15c3.11,0,5.12,2.03,5.12,5.15,0,12.48,0,24.95-.01,37.43,0,.58.08,1.22,1.07,1.46.9.21,1.49,1.1,1.37,2.06-.12.93-.9,1.65-1.86,1.7-.1,0-.2,0-.3,0H2.2Zm25.36-3.88c5.82,0,11.63,0,17.45.02h0c.36,0,.76-.04,1.04-.32.28-.28.32-.67.32-1.06-.02-8.14-.02-16.29-.02-24.43V5.3c0-.57,0-1.44-.81-1.44-.24,0-.49.09-.9.26l-6.34,2.61c-9.47,3.9-18.94,7.8-28.42,11.68-.81.33-1.14.82-1.14,1.68.02,15.14.02,30.28,0,45.42,0,.38.04.77.32,1.06.28.28.68.32,1.04.32,5.82-.01,11.64-.02,17.46-.02Zm23.91-40.05c-.3,0-.68.03-.95.3-.27.27-.3.64-.3,1,.02,4.87.02,9.73.02,14.6v8.18c0,4.9,0,9.8-.01,14.7,0,.33.02.7.29.98.26.26.63.3.92.3,2.2-.02,4.38-.02,6.56-.02s4.43,0,6.64.02h0c.34,0,.69-.04.96-.3.26-.26.3-.63.3-.96-.01-10.18-.01-20.36-.01-30.54v-6.79c0-1.23-.24-1.46-1.5-1.46h-6.44c-2.15,0-4.29,0-6.43-.02h-.03Z"/>
      <path class="cls-1" d="m21.66,29.28c-1.27,0-2.15-.81-2.14-1.94,0-1.15.87-1.93,2.15-1.93h5.86s5.87,0,5.87,0c1.29,0,2.17.77,2.18,1.91,0,.53-.17.99-.51,1.34-.4.4-.99.62-1.68.63h-9.39s-2.35,0-2.35,0Z"/>
      <path class="cls-1" d="m21.65,39.03c-.64,0-1.21-.22-1.6-.61-.35-.35-.53-.82-.53-1.34,0-1.14.88-1.92,2.17-1.92h11.73c1.27,0,2.16.8,2.17,1.92,0,.53-.18.99-.53,1.34-.39.39-.96.61-1.6.61-1.97,0-3.94,0-5.91,0s-3.94,0-5.91,0Z"/>
      <path class="cls-1" d="m21.69,48.79c-1.27,0-2.16-.79-2.17-1.92,0-.53.17-.99.51-1.33.4-.4,1-.62,1.69-.62h11.66c.69,0,1.3.22,1.69.63.34.34.52.8.52,1.33,0,1.13-.9,1.92-2.17,1.92h-5.87s-5.87,0-5.87,0Z"/>
      <path class="cls-1" d="m21.65,58.55c-.64,0-1.21-.22-1.6-.61-.35-.35-.53-.82-.53-1.34,0-1.14.88-1.92,2.17-1.92h11.73c1.27,0,2.16.79,2.17,1.92,0,.53-.18.99-.53,1.34-.39.39-.96.61-1.6.61-1.97,0-3.94,0-5.91,0s-3.94,0-5.91,0Z"/>
    </g>
  </g>
</svg>