<?xml version="1.0" encoding="UTF-8"?>
<svg id="Capa_2" data-name="Capa 2" xmlns="http://www.w3.org/2000/svg" viewBox="0 0 69.12 69.12">
  <defs>
    <style>
      .cls-1 {
        fill: #2828db;
        stroke-width: 0px;
      }
    </style>
  </defs>
  <g id="Capa_1-2" data-name="Capa 1">
    <g>
      <path class="cls-1" d="m21.54,69.12c-.64,0-1.24-.32-1.62-.85-.23-.32-.34-.71-.33-1.23,0-.55,0-1.1,0-1.65,0-.9,0-1.8,0-2.7,0-.56-.11-1.1-.99-1.32-2.41-.59-4.25-1.99-5.47-4.15-.5-.89-1.01-1.78-1.52-2.66-.48-.83-.96-1.67-1.43-2.51-.65-1.15-.42-2.27.57-2.85.32-.19.65-.28.98-.28.71,0,1.37.44,1.82,1.21.5.86.99,1.73,1.48,2.59.46.82.93,1.63,1.4,2.45.95,1.64,2.38,2.55,4.02,2.55.84,0,1.71-.24,2.58-.7,2.61-1.4,5.22-2.79,7.84-4.18l4.96-2.64c1.16-.62,1.69-1.61,1.55-2.88-.13-1.11-.92-2.01-2.03-2.31-.23-.06-.46-.09-.68-.09-.5,0-1,.14-1.58.45-3.48,1.85-6.98,3.68-10.47,5.5-.39.21-.78.31-1.15.31-.59,0-1.11-.27-1.5-.78-.26-.35-.38-.76-.38-1.35v-.16c0-1.03.02-2.1-.25-3.16-.87-3.46-4.03-5.96-7.51-5.96-.26,0-.52.01-.78.04-4.07.44-7.06,3.6-7.11,7.53-.05,4.47-.04,9.01-.04,13.41,0,1.9,0,5.92,0,5.92,0,.21,0,.43-.02.64-.12,1.07-.91,1.79-1.95,1.79-1.13-.04-1.91-.85-1.91-1.95-.02-2.14-.01-4.29-.01-6.43v-2.43c0-1.11,0-2.22,0-3.33,0-2.51-.01-5.01.02-7.52.07-5.62,4.01-10.3,9.57-11.37.71-.14,1.44-.21,2.17-.21,5.31,0,9.96,3.57,11.3,8.69l.39,1.46,2.8-1.47c1.73-.91,3.44-1.8,5.15-2.71,1.05-.56,2.12-.84,3.19-.84.72,0,1.45.13,2.17.38.22.08.41.11.58.11.52,0,.81-.34,1.02-.68,3.24-5.13,6.5-10.24,9.76-15.36l.94-1.47c.34-.54.93-1.17,1.79-1.17.12,0,.24.01.37.04.64.13,1.16.53,1.42,1.11.26.59.22,1.25-.12,1.83-.47.8-.98,1.59-1.49,2.37l-.62.97-1.49,2.34c-2.59,4.08-5.18,8.15-7.79,12.22-.29.45-.51.97-.22,1.75,1.12,3.06-.18,6.52-3.02,8.06-4.3,2.32-8.55,4.57-13.61,7.24-.58.3-.82.7-.81,1.32.03,1.91.03,3.51,0,5.03-.02.96-.55,1.7-1.4,1.95-.17.05-.35.08-.53.08Z"/>
      <path class="cls-1" d="m57.71,36.51c-1.34,0-2.25-.78-2.26-1.93,0-.52.17-.98.51-1.32.4-.41,1.01-.63,1.71-.63h1.92c.35,0,.71,0,1.06,0,2.58-.04,4.54-1.98,4.55-4.5.03-6.68.03-13.31,0-19.72-.01-2.59-2-4.47-4.72-4.48-2.4,0-4.81,0-7.21,0h-9.61c-2.07,0-4.13,0-6.2.01-2.06,0-4.13,0-6.19,0-3.08,0-6.16-.01-9.23-.05h0c-1.63,0-3,.56-3.93,1.58-.88.96-1.3,2.25-1.19,3.62.04.41.02.83,0,1.15-.07,1-.87,1.79-1.86,1.83h0c-1.04,0-1.89-.71-1.98-1.58-.35-3.68.54-6.32,2.81-8.32C17.5.73,19.39.01,21.5,0h31.33c2.57,0,5.15,0,7.72,0,4.34.01,7.75,2.9,8.47,7.18.09.54.09,1.14.09,1.67,0,6.27,0,12.53,0,18.8,0,5.21-3.66,8.85-8.89,8.85h-1.68s-.84,0-.84,0Z"/>
      <path class="cls-1" d="m11.72,33.25c-2.24,0-4.36-.89-5.97-2.5-1.61-1.61-2.49-3.74-2.49-5.99,0-4.65,3.79-8.45,8.44-8.47,2.29,0,4.41.88,6.01,2.49,1.6,1.61,2.48,3.74,2.48,6,0,4.65-3.79,8.45-8.43,8.47h-.04Zm-.02-13.07c-2.52.03-4.55,2.1-4.54,4.62.01,2.51,2.06,4.55,4.57,4.55,2.55-.02,4.58-2.09,4.57-4.62-.01-2.51-2.05-4.55-4.54-4.55h-.06Z"/>
      <path class="cls-1" d="m28.22,16.94c-.95,0-1.57-.37-1.94-1.16-.34-.73-.25-1.39.29-2.04.39-.47.93-.7,1.71-.7,2.15,0,4.29,0,6.43,0h13.46c1.96,0,3.91,0,5.87,0,1.09,0,1.93.71,2.04,1.72.11.99-.54,1.89-1.53,2.12-.17.04-.38.05-.58.05h-25.75Z"/>
      <path class="cls-1" d="m28.25,26.72c-.62,0-1.17-.2-1.57-.57-.38-.35-.59-.84-.59-1.38,0-1.14.89-1.94,2.16-1.94h12.59c1.29,0,2.17.77,2.2,1.92,0,.52-.17.98-.51,1.33-.4.41-1,.64-1.69.64h-6.54s-6.06,0-6.06,0Z"/>
    </g>
  </g>
</svg>