<?xml version="1.0" encoding="UTF-8"?>
<svg id="Capa_2" data-name="Capa 2" xmlns="http://www.w3.org/2000/svg" viewBox="0 0 87.64 89.91">
  <defs>
    <style>
      .cls-1 {
        fill: #2828db;
        stroke-width: 0px;
      }
    </style>
  </defs>
  <g id="Capa_1-2" data-name="Capa 1">
    <g>
      <g>
        <path class="cls-1" d="m78.44,50.23c0,.7.12,1.39-.07,2.08-.25.91-1.04,1.5-1.99,1.47-.91-.03-1.73-.64-1.84-1.53-.17-1.35-.17-2.71-.34-4.06-1.08-8.49-4.98-15.4-11.69-20.71-.43-.34-.89-.65-1.28-1.03-.77-.73-.86-1.88-.27-2.67.65-.85,1.74-1.07,2.71-.47,1.2.76,2.28,1.68,3.32,2.64,7.07,6.56,10.84,14.68,11.45,24.28Z"/>
        <path class="cls-1" d="m8.81,49.76c.69-9.82,4.81-18.2,12.56-24.77,1.07-.91,2.31-.89,3.07.03.77.93.59,2.13-.48,3.04-7.07,6.07-10.81,13.75-11.12,23.08-.03.82-.08,1.63-.79,2.2-1.13.91-2.8.35-3.17-1.05-.2-.75-.04-1.5-.06-2.54Z"/>
        <path class="cls-1" d="m44.42,86.63c-4.4,0-7.98-.58-11.48-1.69-1.27-.4-1.89-1.37-1.58-2.47.34-1.18,1.36-1.77,2.66-1.43,1.31.34,2.61.75,3.94,1,4.89.92,9.72.66,14.49-.75.41-.12.83-.25,1.26-.32,1.06-.19,1.95.3,2.3,1.23.34.92-.08,2.02-1.04,2.48-1.12.53-2.35.79-3.55,1.08-2.54.6-5.13.86-7,.88Z"/>
      </g>
      <g>
        <path class="cls-1" d="m43.43,16.43c-1.01,0-2.08.06-3.18.18-1.61.18-3.03.55-4.32,1.14-3.87,1.74-5.85,5.02-6.03,10.02-.07,1.85.45,3.41,1.51,4.51,1.07,1.11,2.62,1.7,4.49,1.71h2.97s11.97,0,11.97,0c.57,0,1.16,0,1.76-.16,2.66-.71,4.3-2.86,4.29-5.62-.03-6.48-3.41-10.45-9.77-11.49-1.18-.19-2.42-.29-3.69-.29Zm9.84,12.22c-.02,1.01-.95,1.74-2.21,1.75-1.1,0-2.2.01-3.3.01h-4.41s-7.42,0-7.42,0c-.89,0-1.54-.23-1.95-.67-.4-.43-.56-1.08-.5-1.94.05-.68.14-1.58.34-2.44.57-2.43,2.08-4,4.5-4.67,1.67-.46,3.36-.7,5.03-.7s3.24.22,4.82.65c3.55.97,5.17,3.51,5.09,8Z"/>
        <path class="cls-1" d="m36.27,7.17c0,3.92,3.11,7.11,6.91,7.11h0c3.8,0,6.9-3.19,6.91-7.11,0-3.97-3.01-7.12-6.94-7.16-1.8,0-3.49.71-4.78,2-1.36,1.36-2.11,3.2-2.1,5.16Zm10.25-.04c0,1.92-1.52,3.55-3.35,3.56-1.8,0-3.33-1.62-3.33-3.54,0-1.94,1.49-3.53,3.33-3.53v-.26s0,0,0,0v.26c1.84,0,3.34,1.57,3.34,3.51Z"/>
      </g>
      <g>
        <path class="cls-1" d="m13.54,72.34c-1.01,0-2.08.06-3.18.18-1.61.18-3.03.55-4.32,1.14C2.17,75.41.19,78.68,0,83.68c-.07,1.85.45,3.41,1.51,4.51,1.07,1.11,2.62,1.7,4.49,1.71h2.97s11.97,0,11.97,0c.57,0,1.16,0,1.76-.16,2.66-.71,4.3-2.86,4.29-5.62-.03-6.48-3.41-10.45-9.77-11.49-1.18-.19-2.42-.29-3.69-.29Zm9.84,12.22c-.02,1.01-.95,1.74-2.21,1.75-1.1,0-2.2.01-3.3.01h-4.41s-7.42,0-7.42,0c-.89,0-1.54-.23-1.95-.67-.4-.43-.56-1.08-.5-1.94.05-.68.14-1.58.34-2.44.57-2.43,2.08-4,4.5-4.67,1.67-.46,3.36-.7,5.03-.7s3.24.22,4.82.65c3.55.97,5.17,3.51,5.09,8Z"/>
        <path class="cls-1" d="m6.38,63.08c0,3.92,3.11,7.11,6.91,7.11h0c3.8,0,6.9-3.19,6.91-7.11,0-3.97-3.01-7.12-6.94-7.16-1.8,0-3.49.71-4.78,2-1.36,1.36-2.11,3.2-2.1,5.16Zm10.25-.04c0,1.92-1.52,3.55-3.35,3.56-1.8,0-3.33-1.62-3.33-3.54,0-1.94,1.49-3.53,3.33-3.53v-.26s0,0,0,0v.26c1.84,0,3.34,1.57,3.34,3.51Z"/>
      </g>
      <g>
        <path class="cls-1" d="m74.18,72.34c-1.01,0-2.08.06-3.18.18-1.61.18-3.03.55-4.32,1.14-3.87,1.74-5.85,5.02-6.03,10.02-.07,1.85.45,3.41,1.51,4.51,1.07,1.11,2.62,1.7,4.49,1.71h2.97s11.97,0,11.97,0c.57,0,1.16,0,1.76-.16,2.66-.71,4.3-2.86,4.29-5.62-.03-6.48-3.41-10.45-9.77-11.49-1.18-.19-2.42-.29-3.69-.29Zm9.84,12.22c-.02,1.01-.95,1.74-2.21,1.75-1.1,0-2.2.01-3.3.01h-4.41s-7.42,0-7.42,0c-.89,0-1.54-.23-1.95-.67-.4-.43-.56-1.08-.5-1.94.05-.68.14-1.58.34-2.44.57-2.43,2.08-4,4.5-4.67,1.67-.46,3.36-.7,5.03-.7s3.24.22,4.82.65c3.55.97,5.17,3.51,5.09,8Z"/>
        <path class="cls-1" d="m67.02,63.08c0,3.92,3.11,7.11,6.91,7.11h0c3.8,0,6.9-3.19,6.91-7.11,0-3.97-3.01-7.12-6.94-7.16-1.8,0-3.49.71-4.78,2-1.36,1.36-2.11,3.2-2.1,5.16Zm10.25-.04c0,1.92-1.52,3.55-3.35,3.56-1.8,0-3.33-1.62-3.33-3.54,0-1.94,1.49-3.53,3.33-3.53v-.26s0,0,0,0v.26c1.84,0,3.34,1.57,3.34,3.51Z"/>
      </g>
    </g>
  </g>
</svg>