<?xml version="1.0" encoding="utf-8"?>
<!-- Generator: Adobe Illustrator 24.0.1, SVG Export Plug-In . SVG Version: 6.00 Build 0)  -->
<svg version="1.1" id="Layer_1" xmlns="http://www.w3.org/2000/svg" xmlns:xlink="http://www.w3.org/1999/xlink" x="0px" y="0px"
	 viewBox="0 0 233.2 80" style="enable-background:new 0 0 233.2 80;" xml:space="preserve">
<style type="text/css">
	.st0{fill:#FFFFFF;}
</style>
<g>
	<g>
		<g>
			<g>
				<path id="SVGID_8_" class="st0" d="M31.6,51.4l-0.2-0.2l-1.5-1.5l2.4-2.4l2.6,2.6l-1.4,1.3l0,0l-0.9,0.9L31.6,51.4z M21.6,30.1
					c-5.9-5.9-5.9-15.4,0-21.3c2.8-2.8,6.6-4.4,10.6-4.4S40,6,42.8,8.8c5.9,5.9,5.9,15.4,0,21.3l-7.5,7.5l0,0l-3.1,3.1L21.6,30.1z
					 M18.4,5.5c-7.6,7.6-7.6,20.1,0,27.8l7.5,7.5l0,0l3.2,3.2l-2.4,2.4L15.8,35.4c-1.5-1.5-3.4-2.4-5.5-2.4s-4.1,0.8-5.5,2.4
					c-3.1,3.1-3.1,8,0,11.1c1.5,1.5,3.4,2.2,5.5,2.2s4.1-0.8,5.5-2.2l0.2-0.2l-3.3-3.3l-0.2,0.2c-0.6,0.6-1.4,0.9-2.2,0.9
					c-0.8,0-1.6-0.4-2.2-0.9c-1.3-1.3-1.3-3.3,0-4.6c0.6-0.6,1.4-0.9,2.2-0.9c0.8,0,1.6,0.4,2.2,0.9l10.9,10.9L10.2,62.6
					c-0.6,0.6-1.4,0.9-2.2,0.9s-1.6-0.4-2.2-0.9s-1.1-1.4-1.1-2.2c0-0.8,0.4-1.6,0.9-2.2s1.4-0.9,2.2-0.9s1.6,0.4,2.2,0.9l0.2,0.2
					l3.3-3.3l-0.2-0.2c-1.5-1.5-3.4-2.4-5.5-2.4s-4.1,0.8-5.5,2.4C0.8,56.4,0,58.2,0,60.4s0.8,4.1,2.4,5.5c1.5,1.5,3.4,2.4,5.5,2.4
					s4.1-0.8,5.5-2.4l13.1-13.1l2.6,2.6L17.8,66.7c-1.5,1.5-2.2,3.4-2.2,5.5c0,2.1,0.8,4.1,2.2,5.5c1.5,1.5,3.4,2.2,5.5,2.2
					s4.1-0.8,5.5-2.2c1.5-1.5,2.4-3.4,2.4-5.5s-0.8-4.1-2.2-5.5l-0.2-0.2l-3.3,3.3l0.2,0.2c0.6,0.6,0.9,1.4,0.9,2.2
					s-0.4,1.6-0.9,2.2c-1.3,1.3-3.3,1.3-4.6,0c-0.6-0.6-0.9-1.4-0.9-2.2c0-0.8,0.4-1.6,0.9-2.2l7.9-7.9l0,0l3.4-3.4L43.6,70
					c0.6,0.6,0.9,1.4,0.9,2.2s-0.4,1.6-0.9,2.2c-1.3,1.3-3.3,1.3-4.6,0c-0.6-0.6-0.9-1.4-0.9-2.2c0-0.8,0.4-1.6,0.9-2.2l0.2-0.2
					L36,66.5l-0.2,0.2c-1.5,1.5-2.2,3.4-2.2,5.5c0,2.1,0.8,4.1,2.2,5.5c1.5,1.5,3.4,2.2,5.5,2.2s4.1-0.8,5.5-2.2
					c1.5-1.5,2.4-3.4,2.4-5.5c0-2.1-0.8-4.1-2.4-5.5L35.5,55.4l2.4-2.4l13.1,12.8c1.5,1.5,3.4,2.4,5.5,2.4c2.1,0,4.1-0.8,5.5-2.4
					c1.1-1.1,1.9-2.5,2.1-4v-3.2c-0.4-1.5-1.1-2.8-2.1-4c-1.5-1.5-3.4-2.4-5.5-2.4c-2.1,0-4.1,0.8-5.5,2.4l-0.2,0.2l3.3,3.3l0.2-0.2
					c0.6-0.6,1.4-0.9,2.2-0.9c0.8,0,1.6,0.4,2.2,0.9s0.9,1.4,0.9,2.2c0,0.8-0.4,1.6-0.9,2.2s-1.4,0.9-2.2,0.9
					c-0.8,0-1.6-0.4-2.2-0.9L41.3,49.6l11.2-11.2c0.6-0.6,1.4-0.9,2.2-0.9s1.6,0.4,2.2,0.9c1.3,1.3,1.3,3.3,0,4.6
					c-0.6,0.6-1.4,0.9-2.2,0.9s-1.6-0.4-2.2-0.9h-0.2l-3.3,3.3l0.2,0.2c1.5,1.5,3.4,2.2,5.5,2.2s4.1-0.8,5.5-2.2
					c3.1-3.1,3.1-8,0-11.1c-1.5-1.5-3.4-2.4-5.5-2.4s-4.1,0.8-5.5,2.4L38,46.7l-2.6-2.6L46,33.5c7.6-7.6,7.6-20.1,0-27.8
					C42.4,2.1,37.4,0,32.1,0C26.9-0.1,22.1,1.9,18.4,5.5"/>
			</g>
		</g>
		<g>
			<path class="st0" d="M91.1,73.5L90,70.8l-1.1,2.7H91.1z M89.6,69.5h1.1l2.8,6.6h-1.3l-0.6-1.5h-2.9l-0.6,1.5h-1.3L89.6,69.5z"/>
			<g>
				<path class="st0" d="M101.2,75.5c-0.8,0.5-1.8,0.7-2.7,0.7c-0.5,0-0.9-0.1-1.4-0.2s-0.8-0.4-1.1-0.7c-0.4-0.4-0.6-0.7-0.7-1.1
					c-0.1-0.5-0.2-0.8-0.2-1.4c0-0.5,0.1-1.1,0.2-1.4c0.1-0.5,0.4-0.8,0.7-1.1c0.4-0.4,0.7-0.6,1.1-0.7c0.4-0.1,0.8-0.2,1.4-0.2
					c0.5,0,0.9,0.1,1.4,0.2c0.5,0.1,0.8,0.4,1.2,0.6l-0.8,0.8c-0.2-0.2-0.5-0.4-0.7-0.5c-0.4-0.1-0.6-0.1-0.9-0.1
					c-0.4,0-0.7,0.1-0.9,0.2c-0.2,0.1-0.5,0.2-0.7,0.5s-0.4,0.5-0.5,0.7s-0.1,0.6-0.1,0.9c0,0.4,0.1,0.7,0.1,0.9
					c0.1,0.4,0.2,0.6,0.5,0.8c0.2,0.2,0.5,0.4,0.7,0.5s0.6,0.2,0.9,0.2c0.2,0,0.6,0,0.8-0.1s0.5-0.1,0.7-0.2v-1.5h-1.3v-1.1h2.5
					L101.2,75.5L101.2,75.5z"/>
			</g>
			<polygon class="st0" points="104,69.5 108.3,69.5 108.3,70.6 105.2,70.6 105.2,72.1 108.1,72.1 108.1,73.2 105.2,73.2 
				105.2,74.9 108.5,74.9 108.5,76 104,76 			"/>
			<polygon class="st0" points="111.1,69.5 112.6,69.5 115.8,74.4 115.9,74.4 115.9,69.5 116.9,69.5 116.9,76 115.5,76 112.2,71.1 
				112.2,71.1 112.2,76 111.1,76 			"/>
			<g>
				<path class="st0" d="M124.3,71.1c-0.2-0.2-0.5-0.5-0.7-0.5s-0.5-0.1-0.7-0.1c-0.4,0-0.7,0.1-0.9,0.2c-0.2,0.1-0.5,0.2-0.7,0.5
					c-0.2,0.2-0.4,0.5-0.5,0.7s-0.1,0.6-0.1,0.9c0,0.4,0.1,0.7,0.1,0.9c0.1,0.4,0.2,0.6,0.5,0.8c0.2,0.2,0.5,0.4,0.7,0.5
					s0.6,0.2,0.9,0.2c0.2,0,0.5-0.1,0.8-0.2c0.2-0.1,0.5-0.4,0.7-0.6l0.9,0.7c-0.4,0.4-0.7,0.7-1.1,0.9c-0.5,0.2-0.8,0.2-1.4,0.2
					c-0.5,0-0.9-0.1-1.4-0.2c-0.5-0.1-0.8-0.4-1.1-0.7c-0.4-0.4-0.6-0.7-0.7-1.1c-0.1-0.5-0.2-0.8-0.2-1.4c0-0.5,0.1-1.1,0.2-1.4
					s0.4-0.8,0.7-1.1c0.4-0.4,0.7-0.6,1.1-0.7c0.5-0.1,0.9-0.2,1.4-0.2c0.5,0,0.8,0.1,1.2,0.2c0.4,0.1,0.7,0.5,1.1,0.8L124.3,71.1z"
					/>
			</g>
			<rect x="127.6" y="69.5" class="st0" width="1.2" height="6.6"/>
			<path class="st0" d="M135.3,73.5l-1.1-2.7l-1.1,2.7H135.3z M133.9,69.5h1.1l2.8,6.6h-1.3l-0.6-1.5h-2.8l-0.6,1.5h-1.4L133.9,69.5
				z"/>
			<g>
				<path class="st0" d="M146,74.9c0.4,0,0.7,0,1.1-0.1c0.4-0.1,0.6-0.2,0.8-0.4c0.2-0.1,0.5-0.4,0.6-0.7c0.1-0.2,0.2-0.6,0.2-1.1
					c0-0.4-0.1-0.7-0.2-1.1c-0.1-0.2-0.2-0.5-0.5-0.7s-0.5-0.4-0.8-0.4c-0.4-0.1-0.6-0.1-0.9-0.1h-1.1v4.5H146L146,74.9z
					 M143.9,69.5h2.6c0.5,0,0.8,0.1,1.3,0.2c0.4,0.1,0.7,0.4,1.1,0.6s0.6,0.6,0.7,1.1c0.2,0.4,0.2,0.9,0.2,1.4
					c0,0.5-0.1,1.1-0.4,1.4c-0.2,0.4-0.5,0.7-0.8,1.1c-0.4,0.2-0.7,0.5-1.2,0.6c-0.5,0.1-0.8,0.2-1.2,0.2h-2.5L143.9,69.5
					L143.9,69.5z"/>
			</g>
			<polygon class="st0" points="152.3,69.5 156.7,69.5 156.7,70.6 153.5,70.6 153.5,72.1 156.6,72.1 156.6,73.2 153.5,73.2 
				153.5,74.9 156.9,74.9 156.9,76 152.3,76 			"/>
			<polygon class="st0" points="162.8,69.5 164.1,69.5 165.9,74.5 167.8,69.5 169,69.5 166.3,76 165.4,76 			"/>
			<polygon class="st0" points="171.2,69.5 175.5,69.5 175.5,70.6 172.3,70.6 172.3,72.1 175.4,72.1 175.4,73.2 172.3,73.2 
				172.3,74.9 175.6,74.9 175.6,76 171.2,76 			"/>
			<polygon class="st0" points="178.3,69.5 179.9,69.5 183,74.4 183,74.4 183,69.5 184.2,69.5 184.2,76 182.7,76 179.5,71.1 
				179.4,71.1 179.4,76 178.3,76 			"/>
			<polygon class="st0" points="188.5,70.6 186.5,70.6 186.5,69.5 191.6,69.5 191.6,70.6 189.6,70.6 189.6,76 188.5,76 			"/>
			<path class="st0" d="M196.8,73.5l-1.1-2.7l-1.1,2.7H196.8z M195.3,69.5h1.1l2.8,6.6h-1.3l-0.6-1.5h-2.8l-0.6,1.5h-1.3L195.3,69.5
				z"/>
			<g>
				<path class="st0" d="M204.7,70.9c-0.1-0.2-0.2-0.4-0.5-0.4c-0.2-0.1-0.5-0.1-0.7-0.1c-0.1,0-0.2,0-0.4,0s-0.2,0.1-0.4,0.1
					c-0.1,0.1-0.2,0.1-0.2,0.2c-0.1,0.1-0.1,0.2-0.1,0.4c0,0.2,0.1,0.4,0.2,0.5s0.4,0.2,0.6,0.4c0.2,0.1,0.5,0.1,0.7,0.2
					c0.2,0.1,0.5,0.2,0.7,0.4c0.2,0.1,0.5,0.4,0.6,0.6s0.2,0.6,0.2,0.9c0,0.4-0.1,0.7-0.2,0.9c-0.1,0.2-0.4,0.5-0.5,0.7
					c-0.2,0.1-0.5,0.4-0.7,0.4c-0.2,0.1-0.6,0.1-0.9,0.1s-0.8-0.1-1.2-0.2s-0.7-0.4-0.9-0.7l0.8-0.8c0.1,0.2,0.4,0.4,0.6,0.5
					s0.5,0.2,0.7,0.2c0.1,0,0.2,0,0.4-0.1c0.1,0,0.2-0.1,0.4-0.1c0.1-0.1,0.2-0.1,0.2-0.2s0.1-0.2,0.1-0.4c0-0.2-0.1-0.5-0.2-0.6
					s-0.4-0.2-0.6-0.4c-0.2-0.1-0.5-0.2-0.7-0.2c-0.2-0.1-0.5-0.2-0.7-0.4c-0.2-0.1-0.5-0.4-0.6-0.6c-0.1-0.2-0.2-0.6-0.2-0.9
					c0-0.4,0.1-0.6,0.2-0.8s0.4-0.5,0.6-0.6s0.5-0.2,0.8-0.4c0.2-0.1,0.6-0.1,0.9-0.1c0.4,0,0.7,0,1.1,0.1c0.4,0.1,0.6,0.2,0.8,0.5
					L204.7,70.9z"/>
			</g>
			<polygon class="st0" points="212.2,76.5 211.4,76.2 214.3,69.1 215,69.3 			"/>
			<g>
				<path class="st0" d="M223.4,72.2c0.1,0,0.4,0,0.5,0c0.1,0,0.4,0,0.5-0.1c0.1-0.1,0.2-0.1,0.4-0.2s0.1-0.2,0.1-0.5
					c0-0.2,0-0.4-0.1-0.5s-0.2-0.2-0.4-0.2c-0.1-0.1-0.2-0.1-0.5-0.1c-0.1,0-0.4,0-0.5,0h-1.1v1.8h1.1V72.2z M221.4,69.5h2.2
					c0.4,0,0.6,0,0.9,0.1c0.2,0.1,0.6,0.1,0.8,0.4c0.2,0.1,0.4,0.4,0.6,0.6c0.1,0.2,0.2,0.6,0.2,0.9c0,0.5-0.1,0.8-0.4,1.2
					c-0.2,0.4-0.6,0.5-1.2,0.6l1.8,2.9H225l-1.5-2.8h-0.8v2.8h-1.2L221.4,69.5L221.4,69.5z"/>
			</g>
			<polygon class="st0" points="228.7,69.5 233,69.5 233,70.6 229.9,70.6 229.9,72.1 232.8,72.1 232.8,73.2 229.9,73.2 229.9,74.9 
				233.2,74.9 233.2,76 228.7,76 			"/>
			<polygon class="st0" points="87.2,3.4 95.9,3.4 95.9,34 109.3,19.5 120.5,19.5 105.5,35.3 121.5,54.4 109.9,54.4 96,36.6 
				95.9,36.6 95.9,54.4 87.2,54.4 			"/>
			<g>
				<path class="st0" d="M130,19.5h8.7v5.5h0.1c0.9-2,2.4-3.6,4.1-4.7c1.8-1.1,3.9-1.6,6.2-1.6c0.6,0,1.1,0,1.5,0.1
					c0.5,0.1,1.1,0.2,1.5,0.4v8.5c-0.7-0.2-1.4-0.4-2.1-0.5c-0.7-0.1-1.4-0.2-2.1-0.2c-2,0-3.6,0.4-4.9,1.2
					c-1.2,0.7-2.2,1.6-2.8,2.6c-0.7,0.9-1.1,2-1.3,2.9c-0.2,0.9-0.4,1.6-0.4,2.2v18.7h-8.7L130,19.5L130,19.5z"/>
				<path class="st0" d="M180.8,40.7c0,2.5-0.7,4.5-2.1,5.9c-1.4,1.4-3.6,2.1-6.7,2.1c-0.7,0-1.4-0.1-2.2-0.2
					c-0.7-0.1-1.4-0.5-2-0.8c-0.6-0.4-1.1-0.8-1.4-1.4c-0.4-0.6-0.6-1.3-0.6-2.1c0-1.3,0.5-2.2,1.4-2.9s2-1.2,3.4-1.6
					c1.3-0.4,2.7-0.6,4.2-0.7c1.5-0.1,2.8-0.1,4.1-0.1h1.8L180.8,40.7L180.8,40.7z M189,31.4c0-1.1-0.2-2.2-0.5-3.4
					c-0.2-1.2-0.7-2.4-1.3-3.4c-0.6-1.2-1.4-2.1-2.6-3.1c-1.2-0.8-2.5-1.5-4.2-2.1c-1.6-0.6-3.8-0.8-6.2-0.8c-2.7,0-5.4,0.5-8,1.3
					c-2.6,0.8-4.8,2.4-6.8,4.2l4.6,4.6c1.2-1.1,2.6-2,4.1-2.7c1.6-0.7,3.3-0.9,5.2-0.9c2.4,0,4.2,0.6,5.8,1.6
					c1.5,1.1,2.2,2.7,2.2,4.9v0.9H179c-1.4,0-3.1,0-4.6,0.1c-1.6,0.1-3.3,0.2-4.9,0.5c-1.6,0.2-3.2,0.7-4.7,1.2
					c-1.5,0.6-2.8,1.3-4,2.1c-1.2,0.9-2,2-2.7,3.3c-0.7,1.3-1.1,2.9-1.1,4.8c0,1.8,0.4,3.3,1.1,4.6c0.7,1.3,1.6,2.4,2.8,3.3
					c1.2,0.8,2.6,1.5,4.1,2c1.5,0.5,3.1,0.7,4.7,0.7c2.4,0,4.5-0.5,6.4-1.3c2-0.9,3.5-2.4,4.8-4.4h0.2v4.8h7.9v-20
					C189.2,33.5,189.2,32.6,189,31.4"/>
			</g>
			<polygon class="st0" points="198.5,3.4 207.2,3.4 207.2,34 220.7,19.5 231.9,19.5 216.8,35.3 232.8,54.4 221.2,54.4 207.3,36.6 
				207.2,36.6 207.2,54.4 198.5,54.4 			"/>
		</g>
	</g>
</g>
</svg>
