<?xml version="1.0" encoding="UTF-8"?>
<svg xmlns="http://www.w3.org/2000/svg" version="1.1" viewBox="0 0 764.8 107.9">
  <defs>
    <style>
      .cls-1 {
        fill: #2d2d2d;
      }
    </style>
  </defs>
  <!-- Generator: Adobe Illustrator 28.7.7, SVG Export Plug-In . SVG Version: 1.2.0 Build 194)  -->
  <g>
    <g id="Capa_1">
      <g>
        <path class="cls-1" d="M85,13.8v19.3c-8.8-9-19.3-13.5-31.4-13.5s-18.7,3.5-25.5,10.3c-6.8,6.8-10.1,15.4-10.1,25.6s3.3,18.8,10.1,25.6c6.8,6.8,15.4,10.1,25.5,10.1s22.6-4.5,31.4-13.5v19.3c-8.5,7.1-19,10.6-31.4,10.6s-27.7-4.9-38.1-14.8C5.2,82.9,0,70.4,0,55.5S5.2,28.1,15.5,18.1C25.9,8.1,38.7,3.2,53.6,3.2s22.7,3.5,31.4,10.6Z"/>
        <path class="cls-1" d="M128.3,92.9c-10.3-10-15.5-22.5-15.5-37.2s5.2-27.2,15.5-37.2c10.3-10.1,22.9-15.2,37.8-15.2s27.5,5.1,37.8,15.2c10.4,10,15.6,22.5,15.6,37.2s-5.2,27.2-15.5,37.2c-10.3,10-23,15.1-38,15.1s-27.5-5.1-37.8-15.1ZM140.8,81.3c6.8,6.8,15.4,10.3,25.3,10.3s18.4-3.5,25.2-10.3c6.8-7,10.3-15.5,10.3-25.6s-3.5-18.7-10.3-25.6c-6.8-7-15.2-10.4-25.2-10.4s-18.5,3.5-25.3,10.4c-6.8,7-10.1,15.5-10.1,25.6s3.3,18.8,10.1,25.6Z"/>
        <path class="cls-1" d="M251.5,105.9V1.6l51.6,62.4L354.6,1.6v104.3h-17.8v-57.2l-33.8,41.1-33.8-41.1v57.2h-17.8Z"/>
        <path class="cls-1" d="M392.6,105.9V4.9h38.5c8.5,0,16.2,3,22.9,9.1,6.7,6.1,10,14.1,10,23.8s-3.3,17.2-10,23.5c-6.5,6.2-14.2,9.3-22.9,9.3h-20.4v35.3h-18.1ZM410.7,54.2h19.6c8.1,0,15.8-5.9,15.8-16.4s-7.7-16.5-15.8-16.5h-19.6v32.9Z"/>
        <polygon class="cls-1" points="524.6 0 474.7 105.9 493.8 105.9 524.5 37.8 555.2 105.9 574.5 105.9 524.6 0"/>
        <path class="cls-1" d="M598.1,77.9c9.1,9,20.1,13.5,32.7,13.5s19.4-5.6,19.4-12.5-1.6-7.4-4.8-9.8c-3-2.5-9-5.5-17.8-9.1-17.4-7.4-26.8-15.4-26.8-29.8s3.2-14.8,9.6-19.6c6.4-4.9,14.5-7.4,24.3-7.4s17.7,2.3,24.5,7v18.4c-6.8-5.9-14.8-8.8-24-8.8s-16.2,4.2-16.2,10.4c-.6,3.3,2.5,6.2,4.9,8.4,1.3,1.2,5.8,3.3,7.4,4.1l4.8,2.2c2.3,1,3.9,1.6,4.6,2,9.7,4.2,16.7,8.7,21,13.5,4.3,4.8,6.5,11,6.5,18.7s-3.2,15.1-9.6,20.6c-6.4,5.4-15.4,8.1-26.8,8.1s-24.2-3.5-33.8-10.3v-19.4Z"/>
        <path class="cls-1" d="M694.7,77.9c9.1,9,20.1,13.5,32.7,13.5s19.4-5.6,19.4-12.5-1.6-7.4-4.8-9.8c-3-2.5-9-5.5-17.8-9.1-17.4-7.4-26.8-15.4-26.8-29.8s3.2-14.8,9.6-19.6c6.4-4.9,14.5-7.4,24.3-7.4s17.7,2.3,24.5,7v18.4c-6.8-5.9-14.8-8.8-24-8.8s-16.2,4.2-16.2,10.4c-.6,3.3,2.5,6.2,4.9,8.4,1.3,1.2,5.8,3.3,7.4,4.1l4.8,2.2c2.3,1,3.9,1.6,4.6,2,9.7,4.2,16.7,8.7,21,13.5,4.3,4.8,6.5,11,6.5,18.7s-3.2,15.1-9.6,20.6c-6.4,5.4-15.4,8.1-26.8,8.1s-24.2-3.5-33.8-10.3v-19.4Z"/>
      </g>
    </g>
  </g>
</svg>